<?xml version="1.0" standalone="no"?>
<!DOCTYPE svg PUBLIC "-//W3C//DTD SVG 20010904//EN"
 "http://www.w3.org/TR/2001/REC-SVG-20010904/DTD/svg10.dtd">
<svg version="1.0" xmlns="http://www.w3.org/2000/svg"
 width="538.000000pt" height="718.000000pt" viewBox="0 0 538.000000 718.000000"
 preserveAspectRatio="xMidYMid meet">

<g transform="translate(0.000000,718.000000) scale(0.100000,-0.100000)"
fill="#000000" stroke="none">
<path d="M838 7173 c23 -2 61 -2 85 0 23 2 4 4 -43 4 -47 0 -66 -2 -42 -4z"/>
<path d="M1456 7153 c17 -71 69 -146 119 -173 14 -7 25 -19 25 -27 0 -7 4 -13
9 -13 5 0 26 -23 47 -51 60 -78 109 -97 205 -77 54 11 104 54 112 97 4 18 -3
60 -17 108 -13 43 -27 97 -31 121 l-7 42 -234 0 -234 0 6 -27z"/>
<path d="M3022 7103 c4 -65 11 -92 44 -160 21 -45 44 -82 50 -83 5 0 23 -20
38 -45 16 -25 32 -45 36 -45 4 0 10 -10 14 -22 3 -13 17 -36 31 -52 14 -16 25
-33 25 -38 0 -24 64 -68 98 -68 41 0 249 -119 234 -135 -4 -5 -1 -5 6 -1 7 4
18 3 25 -2 22 -18 76 -24 110 -13 31 11 34 16 46 76 13 74 8 89 -61 182 -21
29 -38 59 -38 67 0 8 -10 27 -22 42 -44 55 -213 216 -243 231 -46 24 -155 115
-155 130 0 10 -27 13 -121 13 l-121 0 4 -77z"/>
<path d="M0 7050 l0 -90 28 6 c43 9 71 26 77 45 7 20 -22 89 -36 89 -5 0 -18
9 -29 20 -34 34 -40 24 -40 -70z"/>
<path d="M4182 6970 c-2 -29 11 -40 23 -20 7 12 -3 50 -14 50 -4 0 -8 -13 -9
-30z"/>
<path d="M2373 6880 c-18 -18 -20 -33 -18 -113 3 -101 13 -164 26 -173 5 -2
16 -20 25 -39 9 -19 20 -35 24 -35 5 0 31 -18 59 -40 28 -22 57 -40 66 -40 20
0 95 74 124 122 16 27 24 60 28 110 l5 73 -39 42 c-41 45 -84 67 -173 90 -99
26 -106 26 -127 3z"/>
<path d="M855 6864 c-14 -15 -25 -34 -25 -43 0 -37 -39 -125 -69 -155 l-31
-31 -123 2 c-204 4 -303 -25 -427 -125 -94 -76 -155 -221 -113 -268 31 -34 73
-42 243 -43 149 -2 169 0 203 19 20 11 37 17 37 14 0 -4 6 -2 13 4 14 12 78
30 151 42 159 28 262 63 288 98 15 20 90 58 130 66 15 4 33 13 42 21 8 8 19
15 25 15 25 0 139 63 150 83 16 29 -8 135 -41 183 -23 33 -24 34 -100 35 -87
2 -89 2 -103 10 -5 4 -26 9 -46 13 -21 4 -42 13 -49 21 -7 8 -17 15 -22 15 -5
0 -26 11 -46 25 -46 31 -57 31 -87 -1z"/>
<path d="M4465 6609 c-11 -4 -47 -8 -81 -8 -60 -1 -61 -2 -111 -53 -28 -29
-60 -60 -70 -69 -31 -26 -270 -149 -288 -149 -25 0 -166 -67 -191 -91 -15 -14
-37 -21 -70 -22 -47 -1 -66 4 -159 43 -24 10 -63 16 -100 15 -33 -1 -66 3 -74
9 -7 5 -32 11 -55 13 -56 4 -78 8 -99 18 -11 5 -43 1 -79 -9 -67 -19 -84 -13
-70 25 14 36 4 49 -36 49 -28 0 -46 -8 -74 -35 -37 -33 -48 -55 -28 -55 20 0
9 -15 -20 -28 -24 -11 -39 -11 -78 -2 -56 15 -174 0 -201 -25 -12 -10 -38 -15
-87 -15 -72 0 -91 8 -137 58 -11 12 -27 22 -34 22 -20 0 2 -29 53 -70 29 -23
48 -48 56 -72 6 -21 18 -45 27 -55 9 -10 25 -37 35 -60 11 -24 24 -43 30 -43
18 0 76 -155 78 -210 1 -14 12 -39 25 -57 13 -17 23 -35 23 -39 0 -3 15 -21
33 -38 30 -29 68 -94 47 -81 -5 3 -10 1 -10 -4 0 -6 -10 -11 -23 -11 -13 0
-28 -5 -35 -12 -9 -9 -12 -9 -12 -1 0 7 5 15 10 18 6 3 10 15 10 26 0 15 -5
18 -25 15 -14 -3 -23 -1 -20 4 3 5 -3 18 -15 30 -11 11 -20 27 -20 35 0 8 -7
15 -15 15 -11 0 -13 8 -9 30 5 25 2 31 -20 41 -20 10 -29 10 -38 1 -16 -16
-47 -15 -54 2 -3 7 2 30 10 51 22 53 20 72 -9 79 -19 5 -25 13 -25 32 0 22 -4
25 -21 21 -19 -5 -20 -4 -5 12 19 21 21 57 4 64 -9 3 -8 9 5 19 17 13 17 16 3
46 -9 18 -23 46 -31 63 -8 17 -15 35 -15 41 0 6 -19 31 -41 56 -30 31 -38 46
-29 52 9 6 7 13 -9 29 -11 11 -21 25 -21 30 0 5 -25 17 -55 26 -64 21 -119 16
-182 -15 -23 -11 -46 -20 -51 -20 -5 0 -17 -9 -27 -20 -10 -11 -26 -20 -37
-20 -10 0 -18 -6 -18 -14 0 -17 -57 -125 -76 -144 -7 -7 -25 -14 -41 -17 -15
-2 -45 -7 -65 -10 -21 -3 -38 -11 -38 -18 0 -7 -14 -21 -30 -32 -16 -11 -30
-25 -30 -31 0 -22 -49 -43 -114 -50 -41 -4 -66 -11 -66 -19 0 -6 -9 -20 -21
-31 -12 -10 -30 -38 -42 -62 -23 -50 -45 -67 -134 -102 -43 -17 -68 -34 -76
-50 -7 -14 -24 -31 -39 -38 -16 -7 -29 -24 -33 -41 -3 -16 -13 -32 -21 -35 -8
-3 -14 -11 -14 -19 0 -7 -16 -21 -36 -30 -32 -16 -34 -20 -22 -34 10 -13 10
-17 0 -20 -6 -3 -10 -8 -8 -12 3 -4 -13 -8 -35 -8 -22 -1 -50 -5 -61 -9 -20
-6 -19 -7 9 -19 32 -14 87 -15 99 -2 4 4 14 7 22 7 12 0 12 -3 2 -15 -12 -15
-11 -16 13 -19 11 -1 19 -60 10 -78 -6 -11 -33 3 -33 17 0 20 -30 27 -46 11
-18 -18 -18 -26 0 -26 7 0 19 -7 27 -16 7 -8 21 -13 31 -11 12 4 18 0 18 -11
-1 -24 -24 -52 -44 -52 -27 0 -18 -21 14 -33 17 -6 30 -15 30 -20 0 -18 -22
-47 -35 -47 -8 0 -15 -4 -15 -10 0 -5 14 -10 30 -10 17 0 30 -5 30 -10 0 -6
-6 -10 -13 -9 -6 1 -25 -3 -40 -9 -32 -14 -49 -8 -41 13 4 10 0 12 -15 8 -16
-4 -21 -1 -21 15 0 12 -14 30 -33 43 -17 13 -35 28 -39 34 -4 5 -13 10 -19 10
-7 0 -14 6 -17 13 -2 6 4 12 13 12 23 0 15 34 -10 38 -11 2 -25 10 -31 18 -9
11 -25 12 -84 5 -77 -10 -84 -14 -94 -48 -7 -23 18 -52 106 -120 41 -32 45
-38 31 -48 -14 -10 -11 -16 21 -50 35 -36 46 -40 121 -45 11 -1 0 -7 -24 -13
-49 -13 -65 -35 -32 -44 23 -6 27 -18 11 -28 -17 -10 -1 -25 26 -25 45 0 16
-17 -51 -30 -53 -10 -77 -10 -124 1 -32 7 -67 18 -77 26 -17 12 -17 14 1 33
10 11 16 21 14 23 -2 1 -11 8 -20 15 -13 10 -23 9 -47 -1 l-31 -13 34 -33 c19
-18 32 -38 29 -44 -8 -24 14 -38 82 -52 80 -17 160 -19 169 -5 3 6 16 10 28 9
12 0 16 -3 10 -6 -24 -9 -14 -33 13 -33 l26 0 -23 -25 c-13 -13 -32 -25 -41
-25 -10 0 -26 -10 -37 -22 -17 -18 -34 -22 -98 -25 -54 -2 -73 0 -63 7 8 5 23
10 33 10 17 0 17 2 3 22 -22 31 -20 39 8 32 13 -3 27 -1 30 5 5 7 -10 11 -44
11 -63 0 -117 22 -130 52 -9 22 -9 22 -9 -4 -1 -21 -6 -28 -20 -28 -10 0 -24
-6 -30 -14 -10 -11 -8 -16 7 -20 10 -4 29 -17 41 -30 19 -20 20 -24 6 -36 -8
-7 -15 -16 -15 -21 0 -13 71 -29 97 -23 13 4 48 3 78 -1 44 -5 55 -10 55 -25
0 -25 -46 -32 -90 -13 -53 22 -76 24 -90 8 -10 -12 -16 -13 -28 -3 -13 11 -15
10 -9 -4 4 -11 2 -17 -5 -15 -7 1 -15 -16 -18 -40 -4 -24 -6 -43 -5 -43 1 0
24 4 51 9 27 5 101 12 164 16 63 3 122 7 130 7 35 2 50 -3 50 -17 0 -8 12 -18
26 -21 21 -5 31 -2 45 17 10 13 19 18 19 12 0 -16 25 -17 50 -1 16 10 24 10
40 1 16 -11 18 -10 14 2 -7 18 0 19 28 4 30 -16 5 -29 -57 -29 l-50 -1 34 -18
34 -18 -52 -6 c-28 -3 -61 -13 -73 -22 -25 -17 -27 -16 60 -18 62 -2 63 -1 70
27 10 37 69 59 84 32 10 -19 39 -21 55 -5 15 15 33 3 33 -22 0 -11 6 -19 13
-18 57 7 46 -14 -19 -36 -65 -22 -80 -36 -29 -28 30 5 34 3 29 -10 -3 -9 -19
-22 -35 -29 -28 -12 -30 -22 -14 -75 3 -8 28 -3 80 18 42 16 86 29 97 29 11 0
35 9 54 20 40 25 51 13 19 -22 -21 -23 -22 -28 -10 -44 15 -21 3 -44 -21 -44
-8 0 -14 -7 -14 -16 0 -11 -5 -14 -16 -10 -9 3 -27 -3 -41 -14 -14 -11 -32
-20 -41 -20 -12 0 -12 -3 -2 -15 11 -13 10 -18 -6 -30 -10 -8 -23 -15 -29 -15
-5 -1 -27 -3 -47 -5 -37 -4 -37 -3 -31 26 6 32 -9 39 -33 14 -9 -8 -27 -18
-42 -21 -46 -10 -50 -12 -62 -33 -9 -18 -8 -21 12 -21 13 1 40 7 61 14 34 12
37 12 37 -4 0 -10 -12 -25 -26 -34 -24 -16 -25 -16 -22 0 2 9 -3 19 -9 21 -9
3 -13 -7 -14 -29 -1 -18 -3 -25 -6 -15 -2 9 -8 17 -13 17 -15 0 -32 -30 -27
-49 3 -12 -1 -22 -10 -26 -11 -4 -14 -14 -9 -36 5 -24 3 -30 -8 -26 -8 3 -17
-1 -20 -8 -5 -15 21 -35 47 -35 20 0 20 -66 0 -111 -9 -21 -27 -43 -40 -50
-12 -7 -23 -16 -23 -21 0 -4 -4 -8 -10 -8 -5 0 -10 7 -10 15 0 18 -5 18 -29 5
-13 -7 -17 -17 -13 -37 4 -23 2 -26 -9 -15 -17 16 -30 15 -23 -2 3 -8 -4 -16
-17 -19 -13 -4 -20 -9 -17 -12 3 -4 15 -2 25 3 10 5 24 7 31 5 17 -6 15 -33
-2 -33 -21 0 -31 -21 -15 -31 11 -7 11 -9 -3 -9 -9 0 -18 -6 -21 -12 -3 -10
-8 -10 -21 1 -24 20 -31 6 -12 -24 9 -14 13 -24 9 -23 -5 2 -19 -7 -33 -19
l-24 -23 29 0 c15 0 43 11 61 25 18 14 37 25 42 25 13 0 42 45 42 65 0 18 -21
20 -38 3 -9 -9 -12 -9 -12 0 0 7 5 12 10 12 6 0 10 23 10 50 0 28 5 50 10 50
6 0 10 -4 10 -10 0 -19 27 -10 73 26 26 20 47 44 47 53 0 14 2 14 10 1 7 -10
10 -11 10 -2 0 14 42 32 80 35 16 2 26 9 29 22 2 11 10 24 18 28 11 7 12 12 2
23 -17 21 -31 17 -24 -6 5 -16 2 -20 -15 -20 -12 0 -18 -4 -15 -10 3 -6 -3
-10 -14 -10 -12 0 -21 -4 -21 -10 0 -5 -7 -10 -17 -10 -15 0 -15 2 1 19 10 11
15 24 12 30 -12 19 149 161 182 161 6 0 12 3 14 8 8 18 82 70 93 66 7 -3 16
-1 20 5 11 20 45 13 45 -9 0 -11 4 -20 8 -20 5 0 19 9 32 20 13 11 27 20 32
20 4 0 8 11 8 24 0 17 7 26 25 30 14 4 25 11 25 16 0 6 7 10 15 10 8 0 15 4
15 9 0 18 34 22 46 6 11 -15 13 -15 23 2 6 10 11 14 11 9 0 -4 11 -1 25 8 14
9 30 14 36 10 6 -3 22 0 36 7 20 11 26 11 33 0 5 -8 13 -10 21 -5 7 4 30 7 51
5 29 -2 38 1 38 13 0 20 7 20 26 1 10 -9 12 -23 8 -41 -6 -25 -5 -27 17 -20
47 15 73 12 77 -9 6 -30 24 -49 33 -34 4 7 14 9 23 6 14 -6 14 -10 -2 -41 -17
-35 -40 -51 -28 -20 5 14 4 15 -8 5 -12 -10 -13 -16 -3 -32 6 -10 18 -19 25
-19 7 0 11 -4 7 -9 -3 -5 -1 -12 4 -16 12 -7 7 -34 -14 -75 -9 -17 -14 -39
-10 -48 6 -16 7 -16 19 1 7 9 19 17 27 17 10 -1 8 -4 -4 -11 -9 -6 -15 -14
-12 -19 3 -4 -2 -11 -10 -14 -9 -3 -18 1 -21 9 -8 21 -24 19 -46 -7 -12 -14
-40 -27 -76 -34 -62 -13 -77 -10 -49 10 23 17 22 26 -3 26 -11 0 -23 7 -26 15
-8 19 -24 19 -24 0 0 -8 -4 -15 -10 -15 -5 0 -10 -7 -10 -16 0 -8 -7 -22 -15
-31 -8 -8 -13 -19 -9 -24 7 -13 -14 -39 -32 -39 -17 0 -18 27 -1 33 6 2 9 8 5
12 -4 4 -16 1 -27 -7 -12 -8 -18 -17 -15 -20 5 -5 -39 -20 -52 -17 -4 0 -10
-3 -13 -8 -6 -9 -36 -26 -90 -55 -32 -16 -52 -48 -30 -48 5 0 9 4 9 9 0 5 9
11 19 14 15 4 18 1 14 -12 -3 -9 -10 -21 -14 -27 -5 -6 -6 -14 -2 -17 3 -4 -8
-12 -25 -18 -18 -6 -32 -15 -32 -20 0 -5 -10 -8 -22 -6 -17 1 -22 -3 -20 -16
3 -15 -1 -17 -18 -12 -14 4 -20 2 -18 -6 2 -8 -10 -14 -32 -16 -19 -2 -40 -5
-47 -7 -6 -3 -13 0 -16 7 -6 19 -90 9 -107 -13 -20 -25 -80 -65 -108 -73 -35
-9 -21 13 23 37 22 11 42 24 45 27 3 3 12 9 20 12 12 4 11 6 -2 6 -10 1 -18 9
-18 19 -1 16 -1 16 -11 0 -5 -10 -21 -18 -35 -18 -16 0 -23 -4 -18 -11 5 -9
-1 -10 -20 -5 -15 4 -26 2 -26 -4 0 -6 -10 -8 -24 -4 -15 3 -44 -4 -80 -20
-31 -14 -64 -26 -73 -26 -9 0 -28 -12 -43 -27 -15 -16 -40 -36 -56 -45 -38
-22 -62 -65 -57 -106 3 -27 -1 -34 -22 -42 -14 -5 -25 -17 -25 -27 0 -15 2
-16 10 -3 9 13 11 13 20 0 5 -8 11 -19 13 -25 2 -6 11 -4 20 4 15 12 17 9 17
-32 0 -45 13 -70 23 -45 4 8 6 9 6 2 1 -6 -6 -17 -14 -24 -12 -10 -15 -10 -15
4 0 9 -4 16 -10 16 -17 0 -11 -25 10 -43 17 -15 20 -15 20 -1 0 8 5 12 10 9
15 -10 12 -22 -12 -44 -19 -19 -20 -22 -6 -38 9 -10 14 -26 13 -35 -2 -10 1
-18 7 -18 16 0 55 34 51 45 -3 10 57 39 64 31 2 -2 -3 -16 -12 -32 -8 -16 -15
-38 -15 -48 0 -18 1 -18 20 -1 28 25 25 5 -5 -40 -29 -42 -27 -57 3 -28 10 10
36 31 56 47 20 16 36 34 36 38 0 13 26 38 40 38 6 0 13 7 16 15 3 8 14 17 25
20 11 4 16 11 13 17 -4 7 -2 8 5 4 6 -4 9 -16 6 -27 -9 -27 6 -24 43 11 31 28
33 28 44 10 11 -17 14 -18 29 -4 22 20 32 4 19 -31 -13 -35 -13 -46 3 -44 34
4 40 -1 24 -19 -10 -10 -17 -21 -17 -24 0 -8 32 -3 63 10 16 7 34 12 41 12 6
0 17 5 23 11 8 8 13 8 18 -1 5 -8 11 -6 19 6 14 18 14 19 17 -41 2 -40 27 -30
95 40 63 63 73 79 55 89 -16 10 -41 -5 -41 -25 0 -20 -42 -44 -48 -28 -5 13
-42 11 -42 -3 0 -6 -3 -9 -6 -6 -8 9 15 48 28 48 7 0 29 18 49 40 32 34 43 40
79 40 32 0 40 -3 38 -16 -5 -28 21 -27 28 0 8 33 33 35 27 2 -4 -20 2 -27 32
-42 35 -16 40 -17 66 -1 25 14 30 14 43 1 15 -15 12 -44 -5 -44 -5 0 -9 -7 -9
-15 0 -18 12 -19 27 -4 8 8 19 4 40 -16 19 -19 24 -29 15 -32 -24 -9 8 -33 34
-27 18 5 24 2 24 -10 0 -8 11 -23 25 -32 l25 -16 -21 -26 c-26 -34 -6 -43 27
-11 20 19 24 20 24 6 0 -9 -5 -17 -11 -17 -5 0 -8 -4 -4 -9 3 -6 -8 -24 -25
-41 -16 -17 -37 -42 -46 -55 -9 -14 -22 -25 -29 -25 -6 0 -28 -17 -47 -37 -42
-44 -53 -53 -93 -73 -36 -18 -54 -40 -48 -56 2 -7 0 -15 -6 -19 -14 -8 -14
-35 -1 -35 6 0 10 9 10 20 0 11 12 27 26 37 25 16 27 16 41 -3 11 -13 17 -15
20 -6 3 6 13 12 24 12 10 0 19 7 19 15 0 9 6 18 14 21 8 3 17 16 20 30 4 13
13 24 21 24 8 0 15 5 15 11 0 6 9 22 20 36 17 21 21 23 26 9 4 -10 -5 -29 -24
-50 -28 -32 -59 -102 -50 -112 7 -7 68 17 68 27 0 4 6 6 13 4 16 -7 137 110
137 132 0 15 2 14 15 -3 15 -19 16 -18 38 9 31 37 37 34 24 -14 -6 -25 -17
-43 -28 -46 -9 -3 -20 -15 -24 -26 -7 -22 -7 -21 -15 3 -7 23 -8 24 -9 3 -1
-22 -21 -44 -21 -22 0 8 -4 8 -15 -1 -8 -7 -15 -19 -15 -27 0 -9 -6 -13 -15
-9 -13 4 -14 2 -5 -14 8 -16 8 -20 -4 -20 -8 0 -17 -13 -21 -30 -4 -17 -11
-30 -16 -30 -6 0 -7 4 -4 10 3 6 2 10 -3 10 -13 0 -23 -41 -15 -68 l5 -22 24
23 c13 12 24 30 24 40 0 25 20 21 21 -5 1 -13 2 -30 3 -40 1 -9 4 -19 8 -23 4
-4 4 -14 1 -23 -5 -15 -4 -15 13 1 46 43 69 57 82 52 8 -3 21 4 29 15 13 18
22 20 57 16 31 -4 35 -3 16 3 -23 8 -23 9 -3 10 12 1 24 7 26 14 3 6 6 2 6
-10 1 -32 21 -29 21 3 0 22 2 24 14 14 8 -6 12 -19 9 -27 -4 -11 -3 -14 6 -9
7 5 10 14 7 22 -6 16 29 38 46 28 7 -4 8 -3 4 4 -4 7 -1 12 7 12 15 0 48 42
51 66 3 21 16 29 16 11 0 -26 19 -20 30 9 7 17 15 24 25 20 15 -5 106 51 112
70 2 6 -6 14 -19 18 -22 6 -21 7 17 40 47 40 41 57 -11 32 -38 -17 -56 -14
-36 6 7 7 12 18 12 25 0 16 -32 17 -47 2 -7 -7 -15 -6 -27 6 -20 21 -36 11
-36 -21 0 -14 -4 -23 -9 -20 -21 13 29 96 58 96 4 0 20 17 34 37 20 28 24 40
15 50 -8 10 -14 10 -23 3 -22 -18 -29 9 -8 32 18 20 18 21 -4 14 -13 -4 -23
-5 -23 -2 0 10 24 51 35 58 15 11 1 18 -23 11 -12 -3 -20 -9 -17 -13 3 -5 -5
-11 -17 -15 -56 -16 -78 -28 -78 -46 0 -10 -4 -21 -10 -24 -6 -4 -10 6 -10 23
0 19 13 43 41 75 36 41 47 47 80 47 22 0 39 4 39 9 0 5 7 12 16 15 14 5 15 4
4 -9 -7 -8 -8 -15 -2 -15 5 0 15 7 22 15 15 18 40 20 40 3 0 -6 10 -2 23 9 28
27 100 25 105 -2 2 -10 -2 -22 -10 -27 -9 -7 -8 -8 6 -4 15 5 17 2 13 -13 -7
-29 16 -32 34 -4 l17 25 25 -28 c15 -16 31 -25 40 -21 20 7 23 -4 19 -53 -3
-28 -8 -37 -18 -33 -8 3 -14 14 -14 24 0 25 -17 24 -30 -1 -7 -14 -17 -19 -29
-15 -25 7 -75 -47 -68 -74 3 -14 1 -19 -6 -14 -7 4 -8 0 -4 -11 4 -10 7 -25 8
-34 1 -10 4 -6 8 8 l7 25 13 -23 c10 -19 9 -28 -3 -54 -20 -39 -13 -47 23 -25
29 17 71 23 71 10 0 -4 -12 -17 -27 -30 l-28 -22 28 -1 c17 0 27 5 27 15 0 17
16 20 25 5 11 -17 24 -11 61 28 19 20 32 29 28 19 -6 -17 -5 -18 31 -3 49 21
53 20 27 -4 -12 -11 -25 -20 -30 -20 -5 0 -19 -8 -30 -18 -12 -9 -33 -25 -47
-35 -25 -18 -34 -47 -15 -47 6 0 10 3 10 8 1 24 40 55 74 57 23 2 44 12 55 24
10 12 26 21 36 21 9 0 26 11 37 25 10 13 22 24 26 23 4 -1 21 6 39 15 18 9 39
17 48 17 8 0 15 4 15 9 0 5 7 11 15 15 12 4 13 2 6 -12 -8 -15 -3 -17 50 -17
41 0 59 4 59 13 0 16 25 15 39 -2 15 -18 -27 -63 -66 -71 -76 -16 -138 -41
-138 -55 0 -22 16 -30 37 -19 10 5 33 12 51 14 17 2 42 6 53 10 16 5 23 2 27
-14 8 -31 61 -28 99 4 l31 26 21 -20 c17 -16 30 -19 61 -14 22 3 50 13 63 21
14 9 34 12 52 9 23 -5 33 -2 45 16 28 40 20 65 -25 77 -44 12 -50 27 -20 53
23 20 27 75 6 83 -8 3 -17 13 -21 22 -3 9 -3 13 1 9 4 -4 13 2 21 13 8 11 23
20 34 20 10 0 19 7 19 15 0 8 2 15 5 15 6 0 48 -23 55 -30 21 -22 93 -72 131
-90 31 -15 56 -38 78 -71 17 -27 36 -49 40 -49 19 0 167 195 215 283 31 57 45
130 26 142 -7 4 -16 2 -20 -6 -7 -10 -14 -10 -35 -1 -20 9 -37 10 -68 1 -36
-9 -42 -9 -54 8 -7 10 -16 23 -21 28 -5 6 -12 17 -15 25 -5 13 -6 13 -6 1 -1
-20 -61 38 -61 59 0 9 -5 21 -12 28 -9 9 -9 12 1 12 9 0 11 6 6 18 -4 9 -8 26
-10 37 -1 13 -10 21 -26 23 -13 2 -29 13 -37 23 -7 10 -22 19 -33 19 -27 0
-24 25 8 55 15 14 22 25 15 25 -6 0 -12 -5 -12 -11 0 -5 -4 -7 -10 -4 -5 3
-19 1 -30 -5 -16 -8 -20 -8 -20 4 0 8 4 17 10 21 5 3 7 12 4 20 -3 8 4 20 15
27 27 17 27 25 -1 24 -13 -1 -23 4 -23 9 0 6 -3 15 -7 21 -4 6 6 26 23 45 24
27 28 39 23 64 -4 16 -8 44 -9 60 -1 17 -5 37 -8 45 -14 37 -16 89 -5 121 17
51 48 67 48 25 0 -14 5 -28 10 -31 6 -3 10 -35 10 -71 0 -57 2 -64 20 -64 11
0 20 7 20 15 0 8 -7 15 -15 15 -18 0 -19 9 -1 33 22 29 25 24 28 -55 1 -20 5
-35 9 -33 9 6 19 -20 19 -51 0 -17 -4 -22 -15 -18 -8 4 -15 1 -15 -6 0 -8 8
-10 21 -7 15 4 23 -1 31 -19 6 -13 15 -24 19 -24 5 0 6 -13 3 -28 -4 -22 1
-35 29 -65 19 -21 40 -57 47 -80 15 -52 32 -86 81 -159 20 -32 43 -74 49 -93
13 -39 30 -46 30 -12 0 12 10 40 23 62 17 31 32 43 65 53 44 15 108 73 126
116 6 14 27 36 46 48 39 26 50 56 26 70 -9 5 -16 18 -16 28 0 11 -7 20 -15 20
-22 0 -18 37 6 58 31 26 50 69 43 97 -5 19 3 38 32 80 34 50 36 57 25 79 -10
18 -10 29 -2 45 18 33 16 104 -4 134 -9 15 -21 24 -26 21 -5 -3 -9 6 -9 20 0
14 5 28 10 31 16 10 12 45 -6 45 -9 0 -28 6 -42 14 -70 36 -133 55 -199 60
-89 7 -103 13 -103 40 0 33 10 40 85 64 39 13 84 30 102 38 35 16 83 10 83
-10 0 -21 48 -42 62 -28 20 20 44 14 91 -22 34 -26 72 -41 149 -61 57 -14 118
-31 136 -36 26 -9 38 -7 57 5 24 16 33 45 18 60 -4 4 -8 14 -8 23 0 14 -47 35
-105 47 -8 2 -14 12 -13 22 7 58 13 92 19 117 4 18 2 27 -6 27 -19 0 -5 55 20
80 11 11 28 20 39 20 10 0 24 7 31 15 7 8 16 13 20 10 5 -3 12 0 16 6 4 8 3 9
-4 5 -17 -10 -15 0 5 31 16 25 16 26 -5 44 -12 9 -27 19 -34 21 -14 5 -14 143
0 161 7 8 7 27 0 59 -9 36 -8 54 3 80 8 18 13 56 12 83 -2 36 0 43 6 25 7 -24
7 -24 14 9 9 45 9 53 -3 46 -6 -4 -10 5 -10 19 0 21 5 26 24 26 13 0 26 5 28
11 2 6 25 13 51 16 l47 6 0 83 c0 46 -4 84 -8 84 -13 0 -42 -35 -42 -51 0 -8
-7 -23 -15 -33 -8 -11 -13 -28 -9 -38 3 -12 0 -18 -10 -18 -9 0 -16 -7 -16
-15 0 -8 -9 -15 -20 -15 -11 0 -20 5 -20 10 0 6 -9 10 -20 10 -11 0 -20 7 -20
15 0 11 -11 15 -40 15 -31 0 -40 -4 -40 -17 0 -14 -3 -13 -20 5 -14 15 -23 45
-30 94 -5 40 -7 75 -5 79 3 3 -5 17 -16 30 -12 13 -28 38 -35 56 -8 17 -18 35
-24 38 -6 4 -8 11 -5 16 4 5 1 9 -5 9 -6 0 -9 4 -5 9 3 5 1 12 -5 16 -5 3 -10
1 -10 -6 0 -10 -3 -10 -11 -2 -13 13 -90 -24 -119 -57 -9 -11 -26 -20 -37 -20
-10 0 -28 -6 -39 -14 -10 -8 -30 -12 -45 -9 -35 7 -106 -14 -130 -38 -20 -20
-26 -20 -195 -23 -95 -1 -124 -12 -124 -46 0 -18 -26 -30 -69 -30 -27 0 -110
82 -115 114 -3 20 -15 29 -49 40 -13 4 -17 12 -12 26 4 13 1 22 -9 26 -19 7
-21 24 -3 24 17 0 41 50 29 62 -5 5 -28 12 -53 16 -32 6 -43 12 -41 24 1 8 -5
21 -13 28 -21 17 -19 30 5 30 28 0 25 19 -5 30 -34 13 -32 17 15 30 22 6 40
15 40 21 0 9 -31 7 -98 -7 -15 -3 -21 -1 -17 6 3 5 12 10 18 10 16 1 71 50 63
57 -3 3 6 14 19 25 14 11 25 25 26 31 0 7 29 37 64 67 35 30 64 60 64 67 1 6
15 16 31 22 17 5 30 15 30 22 0 19 135 147 164 155 14 3 26 10 26 14 0 4 14
13 31 20 19 8 26 16 19 20 -15 9 12 20 51 20 16 0 29 4 29 9 0 15 -13 19 -35
10z m-2195 -289 c0 -5 -5 -10 -11 -10 -5 0 -7 5 -4 10 3 6 8 10 11 10 2 0 4
-4 4 -10z m70 -330 c-6 -11 -16 -20 -22 -20 -6 0 -8 -11 -6 -24 4 -20 -1 -27
-26 -37 -17 -7 -57 -25 -88 -40 -32 -15 -70 -27 -85 -27 -15 0 -43 -3 -62 -7
-23 -5 -31 -4 -27 4 4 6 13 11 20 11 18 0 54 19 97 53 20 15 40 27 44 27 5 0
17 8 28 18 15 12 21 14 24 5 8 -21 24 -15 60 22 38 39 60 47 43 15z m35 -40
c3 -5 -1 -10 -10 -10 -9 0 -13 5 -10 10 3 6 8 10 10 10 2 0 7 -4 10 -10z m-5
-77 c0 -20 -76 -132 -101 -149 -35 -23 -37 -34 -6 -34 16 0 18 -3 8 -9 -21
-14 24 -25 48 -12 23 13 41 14 41 4 0 -20 -89 -61 -146 -68 -34 -4 -73 -13
-88 -20 -17 -9 -28 -10 -32 -3 -4 6 -28 7 -65 3 -33 -4 -72 -2 -91 4 -18 5
-59 11 -90 13 -32 2 -58 6 -58 9 0 3 33 12 73 19 175 32 200 39 226 64 15 14
34 26 43 26 21 0 68 38 68 56 0 12 4 12 19 2 17 -10 23 -9 40 6 12 11 21 25
21 33 0 8 12 13 31 13 25 0 29 3 20 13 -8 10 -7 17 1 25 13 13 38 16 38 5z
m1600 -33 c0 -5 -5 -10 -11 -10 -5 0 -7 5 -4 10 3 6 8 10 11 10 2 0 4 -4 4
-10z m-1925 -160 c-3 -5 -11 -10 -16 -10 -6 0 -7 5 -4 10 3 6 11 10 16 10 6 0
7 -4 4 -10z m335 -44 c0 -3 -4 -8 -10 -11 -5 -3 -10 -1 -10 4 0 6 5 11 10 11
6 0 10 -2 10 -4z m2122 -66 c3 -20 0 -30 -9 -30 -7 0 -13 6 -13 14 0 7 -10 17
-22 20 l-23 6 25 14 c31 18 37 14 42 -24z m-2153 -37 c-8 -9 -8 -17 0 -26 15
-19 4 -27 -35 -27 -18 0 -34 -6 -37 -14 -3 -8 -14 -14 -24 -14 -10 0 -27 -3
-38 -6 -20 -8 -20 -7 -1 8 11 9 24 16 29 16 5 0 7 6 4 14 -8 19 12 36 44 36
27 0 57 25 45 37 -3 3 -24 1 -47 -6 -41 -12 -61 -9 -43 8 30 30 129 6 103 -26z
m-29 -85 c0 -18 -68 -88 -86 -88 -8 0 -14 -5 -14 -11 0 -6 7 -8 16 -5 9 3 12
2 9 -5 -4 -6 -14 -8 -22 -5 -9 4 -21 3 -27 -2 -16 -12 -97 -34 -103 -28 -3 2
8 12 24 22 46 28 95 62 143 98 50 38 60 42 60 24z m-1200 -13 c0 -8 -7 -15
-15 -15 -13 0 -14 3 -3 15 16 18 18 18 18 0z m295 -144 c5 -21 4 -31 -3 -27
-5 3 -12 22 -14 41 -5 43 7 33 17 -14z m3768 42 c-13 -2 -33 -2 -45 0 -13 2
-3 4 22 4 25 0 35 -2 23 -4z m-2401 -43 c-3 -24 -1 -30 14 -30 14 0 15 -3 6
-12 -7 -7 -12 -23 -12 -37 0 -32 -14 -56 -28 -47 -6 4 -16 -2 -21 -13 -7 -12
-18 -17 -30 -14 -17 4 -18 9 -10 31 6 15 6 29 0 35 -12 12 -47 4 -43 -11 1 -7
-10 -12 -28 -12 -16 0 -30 2 -30 4 0 2 -3 11 -6 20 -4 11 -1 16 10 16 9 0 16
5 16 11 0 16 70 81 83 76 20 -6 19 -26 -2 -44 -23 -20 -28 -43 -8 -43 18 0 67
58 67 79 0 10 3 21 6 24 13 13 21 -3 16 -33z m-562 24 c0 -15 -82 -86 -102
-89 -13 -1 -32 -6 -42 -10 -35 -15 -5 21 49 57 61 42 95 57 95 42z m-1166 -49
c3 -8 1 -15 -4 -15 -6 0 -10 7 -10 15 0 8 2 15 4 15 2 0 6 -7 10 -15z m1808
-51 c-8 -15 -11 -12 -17 14 -3 17 -3 37 1 44 12 19 27 -38 16 -58z m87 54 c-1
-7 -4 -24 -9 -38 l-7 -25 -8 27 c-7 28 -1 48 16 48 5 0 9 -6 8 -12z m1703 -51
c-12 -14 -62 -12 -62 3 0 13 54 29 64 19 5 -5 4 -14 -2 -22z m-677 -8 c-9 -26
0 -24 30 8 l25 28 0 -58 c0 -51 2 -57 21 -57 34 0 48 -24 50 -82 1 -68 7 -88
25 -88 8 0 14 -6 12 -12 -3 -19 12 -58 23 -58 18 0 9 -38 -12 -52 -17 -11 -20
-19 -14 -37 4 -13 10 -19 14 -13 3 6 20 13 36 17 25 5 28 4 15 -7 -9 -7 -15
-30 -15 -53 0 -29 -4 -40 -15 -40 -8 0 -18 -4 -21 -8 -3 -4 -12 -5 -20 -2 -10
4 -14 18 -12 50 2 34 -1 45 -12 45 -8 0 -15 7 -15 15 0 8 -16 35 -35 61 -19
25 -35 52 -35 60 0 8 -4 14 -9 14 -5 0 -13 14 -16 32 -4 18 -21 45 -37 60 -25
23 -27 30 -18 48 6 11 15 20 21 20 5 0 7 10 4 23 -9 41 -14 105 -8 111 11 11
24 -6 18 -25z m-1145 -46 c-1 -24 -2 -26 -11 -10 -5 9 -7 22 -4 27 10 17 15
11 15 -17z m-30 -73 c0 -5 -4 -10 -10 -10 -5 0 -10 5 -10 10 0 6 5 10 10 10 6
0 10 -4 10 -10z m-110 -80 c0 -5 -4 -10 -10 -10 -5 0 -10 5 -10 10 0 6 5 10
10 10 6 0 10 -4 10 -10z m1644 -22 c-3 -5 -10 -6 -15 -3 -5 4 -9 -3 -9 -14 0
-20 -30 -43 -53 -40 -26 3 -35 -2 -40 -22 -7 -27 -31 -20 -35 10 -2 15 0 21 7
17 6 -4 22 1 36 10 20 13 28 14 40 4 12 -10 15 -10 15 0 0 6 10 25 21 42 16
22 24 26 30 17 4 -7 5 -17 3 -21z m-2084 -8 c0 -6 6 -10 13 -10 7 0 35 -20 62
-45 28 -25 56 -45 63 -45 6 0 12 -4 12 -10 0 -5 11 -10 25 -10 18 0 23 4 19
15 -4 8 -4 15 -1 15 7 0 33 -42 40 -65 6 -18 2 -20 -36 -20 -45 0 -102 29 -92
45 4 6 -1 10 -9 10 -9 0 -16 9 -16 20 0 11 -3 19 -7 18 -12 -4 -83 56 -83 70
0 7 -7 15 -15 18 -8 4 -15 10 -15 15 0 6 9 5 20 -1 11 -6 20 -15 20 -20z m206
-37 c12 -13 28 -23 35 -24 8 -1 3 -4 -11 -8 -20 -6 -31 -1 -52 22 -16 16 -28
33 -28 38 0 13 33 -3 56 -28z m254 33 c0 -3 -4 -8 -10 -11 -5 -3 -10 -1 -10 4
0 6 5 11 10 11 6 0 10 -2 10 -4z m947 -38 c-3 -8 -6 -5 -6 6 -1 11 2 17 5 13
3 -3 4 -12 1 -19z m749 -33 c-4 -16 -13 -25 -26 -25 -23 0 -24 4 -9 33 25 46
47 40 35 -8z m-646 -54 c0 -11 -4 -23 -10 -26 -6 -4 -10 5 -10 19 0 14 5 26
10 26 6 0 10 -9 10 -19z m-1678 -26 c-3 -21 -10 -35 -18 -35 -14 0 -14 19 1
53 12 28 21 19 17 -18z m2338 24 c0 -6 9 -8 20 -4 15 5 18 3 14 -9 -5 -12 1
-16 24 -16 17 0 34 -4 37 -10 3 -5 15 -10 27 -10 11 0 22 -8 25 -20 3 -11 10
-20 17 -20 6 0 2 -7 -8 -15 -15 -11 -22 -12 -27 -3 -5 8 -18 5 -46 -14 -21
-14 -55 -35 -75 -47 -37 -22 -38 -22 -38 -3 0 11 -6 23 -12 25 -8 3 -6 6 4 6
12 1 15 6 11 18 -4 11 3 24 23 40 27 21 27 23 8 23 -12 0 -27 -7 -34 -15 -7
-8 -21 -15 -31 -15 -30 0 -25 50 9 77 29 24 52 29 52 12z m-240 -19 c0 -5 -4
-10 -10 -10 -5 0 -10 5 -10 10 0 6 5 10 10 10 6 0 10 -4 10 -10z m-390 -80 c0
-20 -5 -30 -15 -30 -18 0 -19 14 -5 41 15 27 20 24 20 -11z m454 5 c-4 -8 -8
-15 -10 -15 -2 0 -4 7 -4 15 0 8 4 15 10 15 5 0 7 -7 4 -15z m-3611 -49 c9
-22 -18 -26 -31 -5 -10 16 -9 19 7 19 10 0 21 -6 24 -14z m3917 -5 c0 -11 -8
-22 -17 -24 -15 -4 -14 -5 3 -6 11 0 25 4 32 11 9 9 15 9 24 0 9 -9 7 -13 -6
-18 -10 -4 -29 -18 -42 -30 -12 -13 -34 -24 -47 -24 -14 0 -32 -10 -43 -25
-24 -32 -50 -35 -32 -4 11 17 11 23 0 26 -6 3 -10 9 -6 14 3 5 0 9 -5 9 -6 0
-11 5 -11 12 0 9 3 9 12 0 16 -16 28 -15 28 1 0 21 70 76 98 77 6 0 12 -9 12
-19z m-1790 -126 c0 -5 -5 -3 -10 5 -5 8 -10 20 -10 25 0 6 5 3 10 -5 5 -8 10
-19 10 -25z m1740 -4 c0 -12 -20 -25 -27 -18 -7 7 6 27 18 27 5 0 9 -4 9 -9z
m-3145 -160 c7 -12 -31 -25 -45 -16 -6 4 -8 11 -5 16 8 12 42 12 50 0z m1488
-9 c10 -10 14 -21 11 -25 -9 -9 -44 16 -44 30 0 18 14 16 33 -5z m1611 -61
c17 -11 57 -24 89 -30 89 -16 167 -80 167 -138 0 -32 -69 -66 -123 -61 -37 3
-42 0 -80 -44 -37 -44 -72 -102 -111 -183 -8 -16 -24 -40 -35 -52 -12 -12 -21
-29 -21 -38 0 -32 -44 -12 -67 30 -28 51 -28 55 0 55 41 0 98 75 137 178 13
34 9 247 -5 285 -9 23 9 22 49 -2z m-2379 -31 c-3 -5 -16 -10 -28 -9 -21 0
-21 1 -2 9 28 12 37 12 30 0z m1042 -32 c-3 -8 -6 -5 -6 6 -1 11 2 17 5 13 3
-3 4 -12 1 -19z m-1209 -16 c2 -7 -3 -12 -12 -12 -9 0 -16 7 -16 16 0 17 22
14 28 -4z m167 8 c-28 -12 -37 -12 -30 0 3 6 16 10 28 9 21 0 21 -1 2 -9z
m335 -44 c0 -3 -4 -8 -10 -11 -5 -3 -10 -1 -10 4 0 6 5 11 10 11 6 0 10 -2 10
-4z m1911 -47 c-9 -23 -10 -23 -10 -2 -1 12 2 30 6 40 6 15 8 15 11 2 1 -8 -2
-26 -7 -40z m-1826 21 c11 -17 -5 -32 -21 -19 -7 6 -11 15 -8 20 7 12 21 11
29 -1z m-1005 -10 c0 -5 -11 -10 -25 -10 -14 0 -25 -3 -25 -7 0 -5 -16 -9 -36
-10 -46 -2 -33 13 21 26 55 12 65 13 65 1z m1086 -5 c-10 -8 -23 -12 -28 -9
-14 9 2 24 25 24 21 -1 21 -1 3 -15z m-146 -25 c0 -5 -7 -10 -15 -10 -8 0 -15
5 -15 10 0 6 7 10 15 10 8 0 15 -4 15 -10z m-955 -30 c-3 -5 -13 -10 -21 -10
-8 0 -12 5 -9 10 3 6 13 10 21 10 8 0 12 -4 9 -10z m775 6 c0 -3 -4 -8 -10
-11 -5 -3 -10 -1 -10 4 0 6 5 11 10 11 6 0 10 -2 10 -4z m340 -31 c0 -12 4
-13 19 -5 34 18 37 11 8 -16 -15 -14 -35 -23 -43 -20 -17 6 -19 -15 -3 -31 14
-14 4 -47 -11 -38 -5 3 -10 1 -10 -4 0 -17 27 -13 34 4 4 11 13 14 31 9 14 -3
25 -2 25 4 0 6 14 7 38 2 20 -5 46 -8 57 -7 16 2 19 -3 17 -23 -1 -14 -8 -29
-15 -35 -12 -9 -28 -40 -29 -55 0 -3 -5 -14 -10 -24 -9 -17 -7 -16 21 4 18 12
34 21 35 19 17 -20 25 -49 15 -55 -6 -3 -14 -2 -18 4 -4 7 -11 4 -20 -9 -7
-12 -8 -18 -2 -14 6 3 11 2 11 -4 0 -6 -11 -13 -25 -17 -13 -3 -33 -22 -45
-41 -11 -19 -25 -31 -30 -28 -6 3 -10 1 -10 -4 0 -6 -7 -11 -15 -11 -9 0 -20
-11 -26 -24 -11 -24 -12 -24 -32 -5 -16 15 -18 22 -9 31 16 16 15 38 0 34 -7
-1 -10 -1 -5 1 4 3 7 20 7 39 0 27 -4 34 -20 34 -13 0 -18 -5 -14 -15 5 -11
-11 -43 -43 -84 -7 -9 -31 22 -27 34 3 7 -3 16 -15 20 -11 3 -23 15 -27 27 -5
15 -8 17 -14 7 -6 -9 -12 -10 -22 -2 -8 7 -22 7 -35 2 -22 -8 -29 -25 -35 -79
-3 -27 -38 -42 -38 -16 0 9 7 16 15 16 8 0 15 5 15 11 0 6 -9 8 -20 4 -16 -5
-19 -3 -14 12 5 15 4 16 -5 3 -10 -13 -14 -12 -31 9 -11 13 -20 29 -20 36 0
22 43 22 61 0 15 -17 18 -18 32 -3 9 9 13 19 9 23 -4 4 3 4 15 1 12 -4 24 -2
28 4 3 5 -1 10 -10 10 -13 0 -16 6 -11 25 4 14 2 25 -3 25 -5 0 -22 5 -37 10
-26 10 -26 11 -8 31 10 11 25 19 33 18 28 -2 36 1 23 9 -10 7 -10 15 -3 36 11
26 11 26 31 6 15 -15 27 -18 51 -13 31 6 32 5 25 -21 -6 -25 -5 -26 16 -14 12
7 37 28 55 47 29 30 30 35 16 49 -14 14 -13 17 3 29 10 7 24 13 31 13 7 0 13
7 13 15 0 8 5 15 10 15 6 0 10 -7 10 -15z m-1353 -11 c-3 -3 -12 -4 -19 -1 -8
3 -5 6 6 6 11 1 17 -2 13 -5z m1254 -11 c7 -10 9 -15 5 -11 -5 4 -14 1 -20 -6
-6 -8 -27 -17 -46 -21 l-35 -7 27 25 c15 14 33 27 40 30 7 3 14 6 14 6 1 1 8
-7 15 -16z m-251 -3 c0 -5 -6 -10 -14 -10 -8 0 -18 5 -21 10 -3 6 3 10 14 10
12 0 21 -4 21 -10z m-1030 -100 c0 -5 -2 -10 -4 -10 -3 0 -8 5 -11 10 -3 6 -1
10 4 10 6 0 11 -4 11 -10z m-37 -31 c4 -14 0 -18 -15 -16 -12 1 -23 -4 -25
-10 -3 -7 3 -13 14 -14 16 0 16 -1 -2 -9 -27 -12 -68 -12 -61 -1 3 5 14 7 24
4 15 -4 17 1 14 35 -4 38 -3 39 21 35 14 -3 27 -13 30 -24z m2254 -31 c-3 -8
-6 -5 -6 6 -1 11 2 17 5 13 3 -3 4 -12 1 -19z m3 -22 c0 -3 -4 -8 -10 -11 -5
-3 -10 -1 -10 4 0 6 5 11 10 11 6 0 10 -2 10 -4z m376 -92 c-8 -21 -24 -17
-40 9 -19 28 -11 60 17 72 20 9 22 7 25 -29 2 -21 1 -45 -2 -52z m-1861 36 c3
-5 -1 -10 -10 -10 -9 0 -13 5 -10 10 3 6 8 10 10 10 2 0 7 -4 10 -10z m-795
-10 c0 -5 -5 -10 -11 -10 -5 0 -7 5 -4 10 3 6 8 10 11 10 2 0 4 -4 4 -10z
m-33 -32 c-3 -8 -6 -5 -6 6 -1 11 2 17 5 13 3 -3 4 -12 1 -19z m816 -12 c-6
-10 -13 -12 -23 -6 -10 7 -11 10 -2 10 6 0 12 8 12 17 0 12 3 14 11 6 7 -7 8
-17 2 -27z m251 18 c9 -22 7 -34 -3 -34 -5 0 -11 7 -13 16 -3 14 -6 13 -27 -5
-25 -22 -44 -20 -34 4 3 8 13 15 23 15 11 0 22 5 25 10 9 15 22 12 29 -6z
m790 -16 c-1 -10 4 -18 12 -18 7 0 18 -8 23 -17 17 -31 119 -131 140 -138 12
-3 21 -10 21 -15 0 -4 15 -10 33 -13 69 -10 153 -29 170 -38 12 -7 19 -6 23 4
3 8 26 17 51 21 26 3 54 13 64 22 16 15 19 14 31 -5 7 -12 18 -21 25 -21 8 0
13 -13 13 -35 0 -25 -4 -33 -14 -29 -7 3 -21 -7 -30 -21 -10 -16 -22 -23 -29
-18 -7 4 -16 8 -22 8 -5 1 -37 5 -70 10 -33 5 -64 8 -69 6 -6 -1 -27 5 -48 15
-21 9 -41 15 -44 11 -3 -3 -21 1 -39 9 -19 8 -46 14 -60 14 -14 0 -25 5 -25
11 0 7 -11 9 -29 6 -24 -5 -32 -1 -45 18 -20 30 -35 31 -67 6 -22 -17 -27 -17
-44 -5 -10 8 -24 14 -29 14 -7 0 -8 -3 -1 -8 16 -12 37 -53 30 -60 -4 -4 -13
1 -20 11 -7 10 -22 18 -32 17 -33 -4 -53 0 -53 10 0 6 9 10 20 10 13 0 20 7
20 20 0 14 7 20 23 20 15 0 29 9 37 25 7 14 17 25 22 25 4 0 8 5 8 10 0 6 -3
9 -7 8 -5 0 -16 2 -26 7 -14 6 -15 10 -6 21 7 9 8 14 1 14 -13 0 -23 40 -15
68 4 18 12 22 32 20 18 -2 26 -9 25 -20z m863 -20 c-3 -7 -5 -2 -5 12 0 14 2
19 5 13 2 -7 2 -19 0 -25z m-1677 -22 c0 -2 -7 -7 -16 -10 -8 -3 -12 -2 -9 4
6 10 25 14 25 6z m290 -46 c0 -17 -32 -40 -56 -40 -11 0 -2 21 18 40 28 25 38
25 38 0z m-380 -25 c-7 -8 -16 -15 -21 -15 -5 0 -9 7 -9 15 0 9 9 15 21 15 18
0 19 -2 9 -15z m405 -17 c-7 -24 -32 -48 -49 -48 -6 0 -12 11 -12 25 -1 14 2
25 7 25 5 0 9 -8 9 -17 1 -14 5 -12 21 10 25 33 33 34 24 5z m439 14 c6 -11
-5 -27 -26 -35 -10 -4 -18 1 -21 13 -3 10 -2 21 1 24 8 9 40 7 46 -2z m-934
-25 c0 -7 -7 -22 -15 -33 -12 -16 -14 -17 -15 -2 0 23 11 48 21 48 5 0 9 -6 9
-13z m560 -23 c0 -8 -5 -12 -10 -9 -6 4 -8 11 -5 16 9 14 15 11 15 -7z m-623
-86 c-3 -8 -6 -5 -6 6 -1 11 2 17 5 13 3 -3 4 -12 1 -19z m800 -10 c-3 -7 -5
-2 -5 12 0 14 2 19 5 13 2 -7 2 -19 0 -25z m-27 -13 c10 -13 9 -15 -9 -15 -12
0 -21 6 -21 15 0 8 4 15 9 15 5 0 14 -7 21 -15z m-1120 -24 c-6 -13 -7 -22 0
-26 6 -3 6 -15 0 -30 -6 -16 -6 -27 1 -31 10 -6 -52 -74 -67 -74 -4 0 -13 -8
-20 -17 -12 -16 -13 -15 -14 12 0 39 -17 21 -23 -25 -3 -27 -4 -24 -5 16 -2
38 2 53 13 58 8 3 15 17 15 31 0 14 5 24 12 23 7 -2 14 7 16 19 4 24 46 63 69
63 10 0 11 -4 3 -19z m-172 -135 c-10 -7 -15 -16 -11 -20 4 -4 0 -4 -10 0 -11
4 -17 1 -17 -9 0 -8 5 -17 12 -19 21 -7 1 -37 -21 -31 -12 3 -21 9 -21 14 0 5
-11 9 -25 9 -14 0 -25 5 -25 11 0 6 10 10 23 9 38 -4 49 0 44 13 -2 6 10 19
27 29 34 18 51 14 24 -6z m-123 -16 c7 -12 -2 -12 -30 0 -19 8 -19 9 2 9 12 1
25 -3 28 -9z m-2 -33 c3 -7 -4 -24 -15 -38 -19 -23 -19 -24 -13 -2 5 18 3 22
-9 17 -21 -8 -20 6 2 22 22 17 29 17 35 1z m147 -71 c0 -2 -7 -7 -16 -10 -8
-3 -12 -2 -9 4 6 10 25 14 25 6z m-144 -93 c-10 -10 -19 5 -10 18 6 11 8 11
12 0 2 -7 1 -15 -2 -18z m-376 -12 c0 -6 -4 -13 -10 -16 -5 -3 -10 1 -10 9 0
9 5 16 10 16 6 0 10 -4 10 -9z m1700 -4 c0 -12 -50 -59 -59 -56 -15 5 28 59
46 59 7 0 13 -2 13 -3z m-1660 -61 c0 -8 -4 -18 -10 -21 -5 -3 -10 3 -10 14 0
12 5 21 10 21 6 0 10 -6 10 -14z m2143 -32 c11 -14 16 -28 12 -32 -4 -4 -10
-1 -12 6 -3 6 -11 12 -19 12 -8 0 -14 9 -14 20 0 27 11 25 33 -6z m-1540 -11
c-8 -24 -23 -43 -33 -43 -5 0 -2 14 6 30 16 32 38 42 27 13z m-483 -28 c0 -8
-4 -15 -10 -15 -5 0 -10 7 -10 15 0 8 5 15 10 15 6 0 10 -7 10 -15z m-16 -51
c3 -8 2 -12 -4 -9 -6 3 -10 10 -10 16 0 14 7 11 14 -7z m423 0 c-3 -3 -12 -4
-19 -1 -8 3 -5 6 6 6 11 1 17 -2 13 -5z m93 -14 c0 -5 -2 -10 -4 -10 -3 0 -8
5 -11 10 -3 6 -1 10 4 10 6 0 11 -4 11 -10z m1807 -56 c-17 -17 -158 -86 -164
-80 -5 5 93 60 132 74 37 13 40 14 32 6z m373 -3 c0 -5 -7 -12 -16 -15 -24 -9
-28 -7 -14 9 14 17 30 20 30 6z m-1633 -7 c-3 -3 -12 -4 -19 -1 -8 3 -5 6 6 6
11 1 17 -2 13 -5z m1573 -13 c0 -5 -7 -12 -16 -15 -22 -9 -24 -8 -24 9 0 8 9
15 20 15 11 0 20 -4 20 -9z m-90 -45 c0 -11 -19 -15 -25 -6 -3 5 1 10 9 10 9
0 16 -2 16 -4z m-930 -66 c0 -5 -7 -10 -15 -10 -8 0 -15 5 -15 10 0 6 7 10 15
10 8 0 15 -4 15 -10z m30 -30 c0 -5 -9 -10 -21 -10 -11 0 -17 5 -14 10 3 6 13
10 21 10 8 0 14 -4 14 -10z m-530 -6 c0 -10 -50 -54 -61 -54 -11 0 -11 3 1 34
7 19 17 26 35 26 14 0 25 -3 25 -6z m385 -4 c-3 -5 -11 -10 -16 -10 -6 0 -7 5
-4 10 3 6 11 10 16 10 6 0 7 -4 4 -10z"/>
<path d="M2248 5653 c7 -3 16 -2 19 1 4 3 -2 6 -13 5 -11 0 -14 -3 -6 -6z"/>
<path d="M3970 5070 c0 -5 5 -10 10 -10 6 0 10 5 10 10 0 6 -4 10 -10 10 -5 0
-10 -4 -10 -10z"/>
<path d="M4110 4900 c0 -5 5 -10 10 -10 6 0 10 5 10 10 0 6 -4 10 -10 10 -5 0
-10 -4 -10 -10z"/>
<path d="M4150 4746 c0 -9 5 -16 10 -16 6 0 10 4 10 9 0 6 -4 13 -10 16 -5 3
-10 -1 -10 -9z"/>
<path d="M4418 4813 c7 -3 16 -2 19 1 4 3 -2 6 -13 5 -11 0 -14 -3 -6 -6z"/>
<path d="M2637 3986 c-4 -10 -1 -13 9 -9 15 6 19 23 5 23 -5 0 -11 -7 -14 -14z"/>
<path d="M2666 3821 c-4 -7 -5 -15 -2 -18 9 -9 19 4 14 18 -4 11 -6 11 -12 0z"/>
<path d="M2230 3794 c0 -8 5 -12 10 -9 6 4 8 11 5 16 -9 14 -15 11 -15 -7z"/>
<path d="M2635 3770 c3 -5 8 -10 11 -10 2 0 4 5 4 10 0 6 -5 10 -11 10 -5 0
-7 -4 -4 -10z"/>
<path d="M4470 6553 c0 -7 -7 -13 -15 -13 -22 0 -18 -27 5 -40 16 -9 20 -8 20
5 0 9 5 13 10 10 6 -4 10 6 10 23 0 19 -5 29 -15 29 -8 0 -15 -6 -15 -14z"/>
<path d="M4360 6431 c-30 -4 -67 -15 -82 -25 -37 -25 -61 -72 -48 -97 9 -15 6
-20 -14 -25 -14 -3 -30 -12 -37 -20 -6 -8 -15 -11 -20 -8 -5 3 -9 -2 -9 -10 0
-20 29 -35 85 -43 45 -6 46 -5 104 52 85 83 136 189 89 184 -7 -1 -38 -5 -68
-8z"/>
<path d="M3965 6120 c-3 -5 -1 -10 4 -10 6 0 11 5 11 10 0 6 -2 10 -4 10 -3 0
-8 -4 -11 -10z"/>
<path d="M2507 5803 c-4 -3 -7 -11 -7 -17 0 -6 5 -5 12 2 6 6 9 14 7 17 -3 3
-9 2 -12 -2z"/>
<path d="M843 5333 c9 -2 23 -2 30 0 6 3 -1 5 -18 5 -16 0 -22 -2 -12 -5z"/>
<path d="M915 5290 c-4 -6 5 -10 20 -10 15 0 24 4 20 10 -3 6 -12 10 -20 10
-8 0 -17 -4 -20 -10z"/>
<path d="M562 5143 c-16 -3 -22 -9 -18 -20 3 -8 6 -17 6 -19 0 -2 25 -4 55 -4
30 0 55 3 55 6 0 4 -10 15 -22 25 -21 19 -31 20 -76 12z"/>
<path d="M640 5043 c-37 -19 -39 -39 -5 -37 58 5 85 10 85 17 0 4 -5 7 -11 7
-7 0 -17 7 -23 15 -10 13 -15 13 -46 -2z"/>
<path d="M5120 4609 c0 -5 5 -7 10 -4 6 3 10 8 10 11 0 2 -4 4 -10 4 -5 0 -10
-5 -10 -11z"/>
<path d="M905 4530 c-3 -5 -1 -10 4 -10 6 0 11 5 11 10 0 6 -2 10 -4 10 -3 0
-8 -4 -11 -10z"/>
<path d="M560 4501 c-31 -5 -34 -9 -30 -31 2 -14 4 -40 5 -57 0 -18 4 -33 8
-33 5 0 5 -4 2 -10 -3 -5 -15 -10 -26 -10 -10 0 -19 -7 -19 -15 0 -8 -4 -15
-10 -15 -5 0 -10 -7 -10 -15 0 -11 -12 -15 -52 -15 -49 0 -51 -1 -36 -17 22
-21 168 -35 168 -16 0 7 -11 15 -25 19 -49 12 -23 42 32 35 6 -1 14 3 18 9 3
5 -1 10 -9 10 -11 0 -16 9 -16 29 0 25 4 29 40 35 25 4 40 12 40 20 0 11 12
14 43 14 23 -1 34 -3 25 -6 -22 -4 -24 -30 -3 -38 26 -10 17 -39 -16 -51 -26
-10 -30 -15 -20 -27 9 -11 8 -15 -4 -20 -9 -3 -13 -10 -10 -16 9 -15 42 -12
59 6 18 17 65 12 101 -12 13 -8 36 -12 59 -9 51 7 67 18 37 25 l-23 5 23 12
c13 6 41 18 62 27 20 10 37 23 37 31 0 10 -10 12 -37 9 -29 -4 -34 -3 -23 5
13 9 13 11 -2 11 -9 0 -18 5 -20 11 -2 6 -37 14 -78 20 -47 6 -81 16 -94 27
-63 57 -108 69 -196 53z m290 -150 c0 -6 -4 -13 -10 -16 -5 -3 -10 1 -10 9 0
9 5 16 10 16 6 0 10 -4 10 -9z"/>
<path d="M1260 4465 c0 -8 5 -15 10 -15 6 0 10 7 10 15 0 8 -4 15 -10 15 -5 0
-10 -7 -10 -15z"/>
<path d="M1050 4414 c0 -8 5 -12 10 -9 6 4 8 11 5 16 -9 14 -15 11 -15 -7z"/>
<path d="M200 4290 c0 -6 8 -14 18 -17 9 -4 22 -13 28 -22 8 -9 17 -12 30 -6
10 4 23 7 27 6 14 -3 47 19 47 32 0 8 -24 13 -75 14 -46 2 -75 -1 -75 -7z"/>
<path d="M1153 4287 c-27 -9 -33 -16 -33 -39 0 -18 -5 -28 -15 -28 -8 0 -18
-12 -21 -27 -4 -16 -14 -33 -23 -40 -14 -11 -14 -12 -1 -12 22 0 50 24 50 42
0 11 5 14 16 10 13 -5 14 0 9 30 l-7 35 35 -3 c37 -3 64 15 52 35 -7 12 -18
11 -62 -3z"/>
<path d="M1420 4290 c0 -13 28 -25 38 -16 3 4 0 11 -8 16 -20 13 -30 12 -30 0z"/>
<path d="M1360 4248 c0 -17 -3 -19 -12 -10 -16 16 -48 15 -48 -2 0 -7 -13 -16
-30 -19 -39 -8 -39 -27 -1 -27 38 0 97 35 104 60 3 11 1 20 -4 20 -5 0 -9 -10
-9 -22z"/>
<path d="M690 4239 c0 -5 5 -7 10 -4 6 3 10 8 10 11 0 2 -4 4 -10 4 -5 0 -10
-5 -10 -11z"/>
<path d="M560 4231 c0 -11 -43 -24 -95 -27 -63 -5 -87 -9 -130 -21 -22 -7 -61
-15 -87 -18 -35 -4 -50 -12 -63 -31 -9 -13 -20 -22 -25 -19 -6 4 -10 1 -10 -5
0 -18 48 -30 124 -30 61 0 77 4 106 25 18 13 48 29 67 36 18 6 33 17 33 24 0
13 75 35 123 35 22 1 57 21 57 34 0 3 -22 6 -50 6 -27 0 -50 -4 -50 -9z"/>
<path d="M1984 4189 c-3 -6 -15 -9 -25 -6 -23 6 -41 -14 -29 -32 6 -11 14 -10
39 8 17 12 31 27 31 32 0 12 -7 11 -16 -2z"/>
<path d="M5360 4175 c0 -14 5 -25 10 -25 6 0 10 11 10 25 0 14 -4 25 -10 25
-5 0 -10 -11 -10 -25z"/>
<path d="M1650 4140 c-8 -5 -12 -11 -9 -14 3 -3 14 1 25 9 21 16 8 20 -16 5z"/>
<path d="M475 4130 c3 -5 10 -10 16 -10 5 0 9 5 9 10 0 6 -7 10 -16 10 -8 0
-12 -4 -9 -10z"/>
<path d="M490 4101 c-49 -10 -80 -29 -80 -48 0 -9 -3 -14 -6 -10 -3 3 -22 -3
-42 -13 -23 -11 -71 -21 -127 -25 -50 -3 -102 -11 -117 -17 -21 -8 -37 -7 -68
6 -22 9 -43 16 -45 16 -3 0 -5 -16 -5 -35 0 -27 4 -35 18 -35 16 -1 16 -1 0
-14 -15 -11 -18 -29 -18 -95 0 -44 3 -81 7 -81 16 0 73 25 73 32 0 4 38 6 85
5 88 -2 93 -5 86 -49 0 -5 8 -8 19 -8 28 0 36 27 15 50 -17 19 -16 20 9 31 17
8 26 20 26 35 0 17 9 24 44 35 25 7 44 15 44 18 -1 4 4 18 10 34 9 22 18 27
46 27 19 0 42 3 51 6 14 6 14 9 -5 29 l-21 22 32 28 c33 27 33 27 41 6 9 -26
32 -36 56 -25 9 4 21 8 26 8 14 1 19 26 5 26 -19 0 -89 33 -89 42 0 9 -20 9
-70 -1z m-241 -207 c1 -1 0 -7 -4 -13 -8 -14 -72 -14 -80 -1 -4 6 -10 8 -15 5
-4 -3 -16 -2 -26 2 -16 6 -16 7 2 14 17 7 113 1 123 -7z"/>
<path d="M1496 4055 c4 -8 8 -15 10 -15 2 0 4 7 4 15 0 8 -4 15 -10 15 -5 0
-7 -7 -4 -15z"/>
<path d="M1437 4030 c-16 -26 -16 -30 -3 -30 10 0 13 6 9 18 -3 9 -3 14 2 10
10 -10 37 11 29 23 -9 16 -19 10 -37 -21z"/>
<path d="M2070 4052 c0 -7 -9 -12 -20 -12 -11 0 -20 -4 -20 -10 0 -5 6 -10 14
-10 17 0 41 28 32 37 -3 3 -6 1 -6 -5z"/>
<path d="M740 3981 c0 -6 5 -13 10 -16 6 -3 10 1 10 9 0 9 -4 16 -10 16 -5 0
-10 -4 -10 -9z"/>
<path d="M1368 3973 c7 -3 16 -2 19 1 4 3 -2 6 -13 5 -11 0 -14 -3 -6 -6z"/>
<path d="M5358 3965 c-3 -3 -42 -8 -88 -11 -46 -2 -87 -7 -91 -10 -4 -2 -10 0
-14 6 -9 15 -19 12 -33 -10 -19 -31 0 -56 71 -91 34 -17 66 -39 71 -47 5 -9
19 -26 31 -38 16 -16 19 -26 13 -38 -6 -10 -6 -22 -1 -29 5 -7 14 -24 21 -39
10 -24 8 -31 -12 -53 -20 -21 -33 -26 -82 -27 -72 -2 -94 -12 -94 -42 0 -29
72 -80 127 -91 44 -8 83 -32 83 -51 0 -8 5 -14 10 -14 6 0 10 105 10 295 0
264 -3 308 -22 290z"/>
<path d="M677 3943 c-14 -13 -6 -24 15 -21 27 4 36 28 11 28 -11 0 -23 -3 -26
-7z"/>
<path d="M703 3906 c-23 -11 -32 -36 -14 -36 12 0 41 29 41 41 0 5 -1 8 -2 8
-2 -1 -13 -6 -25 -13z"/>
<path d="M1406 3905 c-4 -10 1 -15 14 -15 13 0 18 5 14 15 -4 8 -10 15 -14 15
-4 0 -10 -7 -14 -15z"/>
<path d="M1360 3860 c0 -5 -9 -10 -20 -10 -11 0 -20 -7 -20 -15 0 -8 -9 -15
-20 -15 -11 0 -20 -4 -20 -10 0 -5 -5 -9 -12 -7 -7 1 -12 -5 -13 -13 0 -8 -12
-21 -27 -28 -16 -7 -28 -20 -28 -28 0 -17 -1 -17 41 -2 19 6 41 19 49 28 8 9
29 24 47 33 17 9 40 28 50 41 11 13 30 26 44 29 13 2 3 5 -23 6 -27 0 -48 -3
-48 -9z"/>
<path d="M598 3852 c-22 -4 -23 -18 -2 -26 13 -5 54 8 54 18 0 7 -35 12 -52 8z"/>
<path d="M1022 3839 c-12 -19 -11 -20 10 -17 13 2 23 9 23 17 0 23 -19 23 -33
0z"/>
<path d="M755 3830 c-3 -5 -1 -10 4 -10 6 0 11 5 11 10 0 6 -2 10 -4 10 -3 0
-8 -4 -11 -10z"/>
<path d="M880 3804 c0 -9 -10 -24 -22 -34 -13 -10 -20 -22 -15 -26 9 -9 67 45
67 63 0 7 -7 13 -15 13 -8 0 -15 -7 -15 -16z"/>
<path d="M953 3803 c-15 -5 -18 -33 -4 -33 8 0 25 30 19 35 -2 1 -9 0 -15 -2z"/>
<path d="M997 3804 c-4 -4 -7 -14 -7 -23 0 -11 3 -12 11 -4 6 6 10 16 7 23 -2
6 -7 8 -11 4z"/>
<path d="M1032 3755 c-24 -28 -27 -35 -13 -35 5 0 13 9 16 20 3 11 13 20 21
20 8 0 14 5 14 10 0 17 -15 11 -38 -15z"/>
<path d="M4196 3743 c-11 -11 -6 -23 9 -23 8 0 15 4 15 9 0 13 -16 22 -24 14z"/>
<path d="M50 3710 c0 -5 7 -10 15 -10 8 0 15 5 15 10 0 6 -7 10 -15 10 -8 0
-15 -4 -15 -10z"/>
<path d="M1157 3713 c-14 -13 -6 -33 13 -33 13 0 20 7 20 20 0 19 -20 27 -33
13z"/>
<path d="M1063 3663 c-13 -3 -23 -9 -23 -14 0 -5 -7 -9 -15 -9 -8 0 -15 -7
-15 -16 0 -10 6 -14 15 -10 18 6 20 -15 4 -31 -13 -13 -4 -33 16 -33 8 0 18 6
22 14 4 7 19 13 33 12 18 -1 24 4 22 15 -2 14 22 32 55 41 8 2 9 8 4 17 -7 11
-13 11 -32 1 -13 -7 -27 -18 -31 -24 -5 -8 -10 -8 -19 1 -8 8 -4 15 16 26 l28
14 -29 0 c-16 0 -39 -2 -51 -4z"/>
<path d="M1080 3540 c0 -5 7 -10 16 -10 8 0 12 5 9 10 -3 6 -10 10 -16 10 -5
0 -9 -4 -9 -10z"/>
<path d="M1485 3540 c-3 -5 -2 -10 4 -10 5 0 13 5 16 10 3 6 2 10 -4 10 -5 0
-13 -4 -16 -10z"/>
<path d="M5356 3325 c-3 -8 -12 -15 -20 -15 -8 0 -16 -4 -18 -10 -2 -8 -26
-16 -60 -19 -3 -1 -9 -14 -13 -30 -8 -38 -36 -49 -145 -57 -49 -4 -90 -10 -90
-13 0 -8 -53 -8 -60 -1 -16 16 -86 40 -115 40 -46 0 -44 -14 5 -36 22 -10 40
-21 40 -26 0 -4 9 -8 20 -8 10 0 25 -10 31 -22 7 -12 25 -36 41 -53 15 -16 33
-44 40 -61 12 -33 52 -54 104 -54 16 0 40 -7 53 -16 18 -13 37 -15 83 -11 33
3 65 10 71 16 18 18 37 13 37 -9 0 -11 5 -20 10 -20 6 0 10 77 10 210 0 189
-6 240 -24 195z m-56 -69 c0 -3 -4 -8 -10 -11 -5 -3 -10 -1 -10 4 0 6 5 11 10
11 6 0 10 -2 10 -4z"/>
<path d="M186 3288 c-20 -28 -3 -39 22 -14 12 11 13 19 5 27 -8 8 -15 4 -27
-13z"/>
<path d="M270 3290 c0 -5 7 -10 16 -10 8 0 12 5 9 10 -3 6 -10 10 -16 10 -5 0
-9 -4 -9 -10z"/>
<path d="M0 3246 c0 -42 15 -54 40 -31 11 10 26 15 35 12 31 -12 13 21 -22 41
-39 21 -53 15 -53 -22z"/>
<path d="M120 3245 c0 -8 9 -15 20 -15 11 0 20 7 20 15 0 8 -9 15 -20 15 -11
0 -20 -7 -20 -15z"/>
<path d="M1680 3045 c0 -9 5 -15 11 -13 6 2 11 8 11 13 0 5 -5 11 -11 13 -6 2
-11 -4 -11 -13z"/>
<path d="M2829 2965 c-2 -8 -5 -19 -13 -53 -10 -42 7 -64 24 -32 8 15 9 25 2
32 -7 7 -7 19 -2 34 6 15 6 24 0 24 -6 0 -11 -2 -11 -5z"/>
<path d="M2763 2905 c-8 -22 6 -33 17 -15 13 20 12 30 0 30 -6 0 -13 -7 -17
-15z"/>
<path d="M1465 2860 c-3 -6 1 -7 9 -4 18 7 21 14 7 14 -6 0 -13 -4 -16 -10z"/>
<path d="M2800 2834 c0 -8 5 -12 10 -9 6 4 8 11 5 16 -9 14 -15 11 -15 -7z"/>
<path d="M5343 2840 c-13 -5 -23 -16 -23 -24 0 -21 -58 -47 -89 -40 -22 5 -24
4 -11 -8 9 -7 22 -27 29 -44 11 -27 63 -66 123 -92 5 -2 8 46 8 107 0 61 -3
111 -7 110 -5 0 -18 -4 -30 -9z"/>
<path d="M1480 2805 c-10 -12 -10 -15 3 -15 19 0 31 16 18 24 -5 3 -14 -1 -21
-9z"/>
<path d="M2640 2800 c0 -5 5 -10 10 -10 6 0 10 5 10 10 0 6 -4 10 -10 10 -5 0
-10 -4 -10 -10z"/>
<path d="M5185 2801 c-3 -5 -1 -12 5 -16 5 -3 10 1 10 9 0 18 -6 21 -15 7z"/>
<path d="M1450 2755 c-13 -14 -19 -25 -13 -25 5 0 20 11 33 25 13 14 19 25 13
25 -5 0 -20 -11 -33 -25z"/>
<path d="M1745 2730 c-3 -5 -1 -10 4 -10 6 0 11 5 11 10 0 6 -2 10 -4 10 -3 0
-8 -4 -11 -10z"/>
<path d="M1726 2685 c4 -8 1 -15 -5 -15 -6 0 -11 -5 -11 -11 0 -16 -32 -83
-43 -90 -5 -4 -6 -12 -3 -18 4 -6 3 -11 -3 -11 -7 0 -7 -8 -1 -25 6 -16 6 -25
0 -25 -6 0 -10 -4 -10 -10 0 -5 7 -10 15 -10 11 0 15 11 15 37 0 35 1 36 15
17 14 -18 16 -18 26 -1 5 9 17 17 24 17 8 0 15 4 15 9 0 6 15 27 34 47 42 46
52 74 25 74 -10 0 -23 -8 -28 -17 -12 -22 -68 -56 -75 -45 -2 4 9 23 25 41 33
38 35 43 14 35 -8 -4 -15 -1 -15 5 0 6 -4 11 -10 11 -5 0 -7 -7 -4 -15z"/>
<path d="M1651 2644 c-25 -31 -27 -44 -7 -44 8 0 18 9 21 20 4 11 11 18 16 15
11 -8 12 6 0 23 -6 11 -13 7 -30 -14z"/>
<path d="M3610 2639 c-19 -16 -28 -28 -20 -27 16 3 16 -4 4 -36 -5 -14 -4 -17
5 -11 10 6 11 3 2 -14 -7 -11 -16 -21 -22 -21 -6 0 -7 5 -4 10 14 23 -19 7
-46 -22 -34 -38 -35 -44 -12 -52 11 -5 24 2 39 21 26 31 29 28 14 -12 -8 -20
-7 -27 6 -32 9 -3 19 -2 23 3 3 5 17 10 31 12 37 3 104 82 70 82 -13 0 -2 47
17 77 13 19 12 23 -4 31 -45 23 -68 21 -103 -9z"/>
<path d="M3796 2663 c-10 -3 -28 -14 -39 -24 l-21 -19 22 0 c20 0 21 -1 5 -28
-16 -28 -16 -30 5 -52 l22 -24 0 30 c1 33 30 74 55 74 15 0 15 1 1 16 -9 8
-16 20 -16 25 0 9 -3 10 -34 2z"/>
<path d="M3917 2663 c-12 -11 -8 -23 7 -23 7 0 19 7 26 15 10 12 9 15 -7 15
-11 0 -23 -3 -26 -7z"/>
<path d="M2815 2634 c-18 -14 -18 -14 2 -14 23 0 39 15 26 23 -5 3 -17 -1 -28
-9z"/>
<path d="M2836 2595 c-4 -14 -11 -25 -16 -25 -5 0 -7 7 -4 15 10 24 -12 17
-25 -9 -8 -13 -23 -29 -35 -34 -17 -9 -18 -11 -3 -11 19 -1 23 -27 5 -34 -7
-2 -10 -8 -6 -12 3 -3 35 21 70 54 51 50 60 63 48 71 -22 15 -27 12 -34 -15z"/>
<path d="M2970 2604 c0 -8 -4 -12 -10 -9 -14 9 -68 -22 -81 -48 -7 -12 -17
-25 -23 -29 -8 -5 -7 -8 2 -8 7 0 15 6 18 14 3 9 12 12 21 9 11 -4 14 -2 9 5
-4 7 -2 12 3 12 6 0 11 7 11 16 0 14 3 14 15 4 10 -9 15 -9 15 -1 0 6 7 11 15
11 8 0 15 2 15 4 0 2 3 11 6 20 3 9 1 16 -5 16 -6 0 -11 -7 -11 -16z"/>
<path d="M3474 2595 c-7 -18 -34 -20 -34 -2 -1 7 -7 4 -15 -7 -8 -10 -12 -23
-9 -27 2 -4 -21 -33 -53 -63 -31 -31 -53 -59 -49 -63 4 -4 12 0 17 10 6 9 16
17 22 17 14 0 67 57 67 71 0 5 4 9 10 9 5 0 6 7 3 17 -4 11 -3 14 6 9 15 -10
71 15 71 31 0 18 -29 16 -36 -2z"/>
<path d="M3550 2595 c-8 -9 -8 -15 -2 -15 12 0 26 19 19 26 -2 2 -10 -2 -17
-11z"/>
<path d="M2745 2580 c-23 -26 -8 -26 25 0 18 14 21 20 9 20 -9 0 -24 -9 -34
-20z"/>
<path d="M3340 2535 c-19 -19 -30 -35 -25 -35 11 1 75 56 75 65 0 12 -17 2
-50 -30z"/>
<path d="M1585 2550 c-3 -5 -1 -10 4 -10 6 0 11 5 11 10 0 6 -2 10 -4 10 -3 0
-8 -4 -11 -10z"/>
<path d="M3005 2514 c-20 -16 -25 -24 -14 -24 16 0 56 37 48 44 -2 2 -17 -7
-34 -20z"/>
<path d="M3730 2529 c0 -5 5 -7 10 -4 6 3 10 8 10 11 0 2 -4 4 -10 4 -5 0 -10
-5 -10 -11z"/>
<path d="M135 2512 c-4 -12 -12 -21 -19 -20 -6 2 -35 -13 -64 -31 l-52 -34 0
-75 c0 -42 2 -73 4 -71 12 12 98 132 121 169 15 24 24 51 22 63 l-4 22 -8 -23z"/>
<path d="M2873 2492 c-10 -14 -14 -15 -21 -3 -6 8 -12 9 -16 3 -10 -17 27 -24
43 -8 8 9 13 18 10 20 -3 3 -10 -3 -16 -12z"/>
<path d="M2630 2490 c0 -5 5 -10 11 -10 5 0 7 5 4 10 -3 6 -8 10 -11 10 -2 0
-4 -4 -4 -10z"/>
<path d="M5241 2471 c-1 -30 38 -91 60 -91 8 0 19 -4 25 -9 5 -5 19 -12 32
-16 20 -6 22 -3 22 38 0 41 -3 46 -31 56 -18 6 -47 11 -65 11 -23 0 -34 5 -37
18 -3 12 -5 10 -6 -7z"/>
<path d="M3415 2470 c3 -5 8 -10 11 -10 2 0 4 5 4 10 0 6 -5 10 -11 10 -5 0
-7 -4 -4 -10z"/>
<path d="M2715 2460 c3 -5 14 -10 23 -10 15 0 15 2 2 10 -20 13 -33 13 -25 0z"/>
<path d="M3487 2459 c7 -7 15 -10 18 -7 3 3 -2 9 -12 12 -14 6 -15 5 -6 -5z"/>
<path d="M2580 2366 c0 -21 24 -36 48 -29 30 7 28 23 -3 23 -14 0 -25 5 -25
10 0 6 -4 10 -10 10 -5 0 -10 -6 -10 -14z"/>
<path d="M4120 1923 c0 -5 16 -21 36 -37 26 -21 39 -25 47 -17 8 8 8 11 -1 11
-7 0 -12 6 -12 14 0 17 -5 21 -42 30 -16 3 -28 3 -28 -1z"/>
<path d="M4308 1905 c-13 -13 14 -101 40 -129 15 -16 32 -36 37 -43 23 -30 82
-98 112 -128 17 -17 39 -55 48 -83 10 -28 33 -68 52 -88 33 -35 58 -80 55 -96
-1 -5 5 -8 13 -8 9 0 18 -7 21 -15 4 -8 15 -15 25 -15 10 0 19 -4 19 -10 0 -5
-14 -10 -30 -10 -23 0 -33 6 -40 25 -5 14 -15 25 -21 25 -7 0 -9 3 -6 7 4 4
-13 16 -37 28 -25 12 -52 28 -61 35 -12 10 -26 11 -53 4 -48 -12 -45 -33 16
-97 26 -27 77 -81 115 -120 37 -40 76 -81 87 -92 11 -12 20 -31 20 -43 0 -12
4 -22 8 -22 5 0 15 -11 22 -25 7 -14 19 -25 25 -25 15 0 92 -66 85 -73 -7 -7
-105 16 -150 35 -33 14 -59 40 -102 101 -13 18 -30 26 -70 31 -49 7 -89 28
-131 70 -8 8 -27 18 -41 22 -25 6 -25 7 -9 19 10 8 14 17 10 22 -5 4 -14 0
-21 -9 -8 -11 -20 -15 -34 -11 -14 3 -22 1 -22 -7 0 -7 6 -10 13 -7 23 9 34
-6 40 -51 5 -42 5 -42 -12 -23 -9 11 -30 23 -45 27 -15 3 -31 16 -36 28 -5 11
-18 32 -29 46 -20 25 -20 25 -35 5 -20 -26 -20 -38 3 -77 24 -38 19 -51 -15
-38 -14 6 -27 10 -30 10 -14 0 7 -63 27 -80 11 -9 17 -50 8 -55 -11 -7 -59 24
-59 37 0 6 -11 19 -24 29 -14 11 -34 35 -46 54 -26 42 -42 44 -59 8 -8 -16
-17 -36 -22 -45 -5 -10 -9 -27 -9 -37 0 -23 -16 -36 -25 -21 -10 16 -25 1 -25
-26 0 -13 -4 -24 -10 -24 -5 0 -10 -6 -10 -14 0 -8 -11 -23 -25 -33 -20 -14
-27 -31 -34 -83 -5 -36 -15 -83 -22 -106 -16 -53 -7 -78 23 -68 13 4 38 8 56
9 18 1 38 7 45 14 6 6 16 11 23 11 7 0 14 6 17 13 3 9 7 9 19 -1 10 -8 26 -10
41 -6 39 9 50 -3 30 -33 -16 -24 -16 -26 2 -39 10 -8 27 -14 36 -14 10 0 21
-5 25 -11 3 -6 20 -17 38 -25 17 -7 26 -13 19 -14 -6 0 -14 -13 -18 -29 -9
-42 -33 -47 -67 -14 -25 23 -31 26 -48 15 -23 -14 -50 -16 -50 -3 0 5 7 12 16
15 14 5 11 11 -13 36 -28 29 -63 33 -63 9 0 -17 -38 -51 -48 -45 -6 3 -23 1
-38 -5 -22 -8 -25 -12 -14 -19 11 -7 11 -11 1 -24 -7 -8 -11 -27 -10 -43 2
-32 -10 -73 -21 -73 -5 0 -16 -14 -24 -32 -14 -28 -15 -34 -2 -46 8 -8 20 -12
28 -10 7 3 16 5 19 4 4 0 15 7 26 16 12 12 30 16 53 13 24 -3 42 2 64 19 42
31 166 73 251 86 77 10 151 28 176 41 24 11 168 14 179 3 6 -6 0 -20 -15 -36
-16 -17 -22 -33 -18 -47 4 -16 1 -21 -15 -21 -28 0 -38 -19 -20 -36 11 -12 21
-13 43 -4 31 12 60 6 50 -10 -11 -17 7 -11 21 8 12 16 13 15 14 -5 0 -12 -5
-25 -10 -28 -6 -4 -8 -11 -5 -16 9 -14 -24 -23 -48 -12 -26 11 -109 -5 -129
-25 -6 -6 -20 -12 -29 -12 -17 0 -34 -26 -21 -34 4 -2 25 -5 47 -7 22 -1 52
-9 67 -16 15 -7 47 -13 72 -13 27 0 58 -8 80 -21 19 -11 45 -19 58 -17 17 2
24 -2 26 -18 4 -27 -36 -37 -94 -22 -60 14 -99 8 -99 -17 -1 -11 -4 -26 -9
-33 -6 -10 35 -13 216 -11 135 0 228 5 236 11 15 13 16 48 1 48 -21 0 -2 24
24 31 24 7 26 5 21 -21 -5 -22 -2 -28 15 -33 12 -3 21 -12 21 -21 0 -14 19
-16 150 -16 l150 0 0 440 c0 372 -2 440 -14 440 -8 0 -25 12 -38 28 -13 15
-52 52 -88 82 -88 75 -110 101 -104 125 4 15 -6 26 -38 46 -24 15 -61 32 -83
39 -43 14 -96 41 -167 86 -23 16 -47 27 -52 26 -5 -2 -22 9 -37 24 -21 20 -26
31 -18 40 6 7 7 19 3 26 -4 6 -8 22 -9 35 0 12 -9 29 -19 36 -11 8 -16 19 -12
26 4 6 0 14 -11 18 -29 10 -58 44 -82 96 -27 55 -95 127 -154 162 -23 13 -49
34 -57 46 -25 37 -72 89 -79 89 -4 0 -10 -2 -13 -5z m-91 -1002 c17 -31 20
-46 13 -81 -10 -56 -16 -60 -28 -20 -13 41 -21 138 -12 138 3 0 16 -17 27 -37z
m-300 -35 c-3 -8 -6 -5 -6 6 -1 11 2 17 5 13 3 -3 4 -12 1 -19z m0 -40 c-3 -8
-6 -5 -6 6 -1 11 2 17 5 13 3 -3 4 -12 1 -19z m23 -48 c0 -5 -2 -10 -4 -10 -3
0 -8 5 -11 10 -3 6 -1 10 4 10 6 0 11 -4 11 -10z m331 -253 c-15 -15 -24 -2
-16 24 7 20 8 21 17 5 7 -12 7 -21 -1 -29z m99 32 c51 -11 59 -20 38 -43 -9
-9 -23 -11 -52 -4 -48 11 -67 25 -59 44 6 17 8 17 73 3z m-450 -59 c0 -5 -7
-10 -15 -10 -8 0 -15 5 -15 10 0 6 7 10 15 10 8 0 15 -4 15 -10z"/>
<path d="M4205 1840 c3 -5 8 -10 11 -10 2 0 4 5 4 10 0 6 -5 10 -11 10 -5 0
-7 -4 -4 -10z"/>
<path d="M4046 1732 c-3 -2 -2 -10 1 -18 8 -20 33 -17 33 4 0 17 -23 26 -34
14z"/>
<path d="M5120 1705 c0 -11 49 -81 67 -96 44 -36 153 -74 153 -52 0 13 -60 63
-75 63 -8 0 -17 9 -20 20 -3 11 -13 20 -21 20 -8 0 -17 7 -20 15 -4 8 -14 15
-24 15 -11 0 -22 5 -25 10 -6 10 -35 14 -35 5z"/>
<path d="M495 1368 c-11 -6 -24 -15 -30 -19 -29 -22 -80 -67 -100 -86 -12 -13
-25 -23 -28 -23 -3 0 -23 -18 -45 -40 -21 -22 -42 -40 -46 -40 -3 0 -25 -20
-48 -45 -23 -25 -60 -57 -82 -72 -23 -16 -47 -36 -55 -46 -7 -10 -24 -22 -37
-27 -23 -9 -24 -14 -24 -100 0 -83 2 -90 20 -90 10 0 30 10 43 23 13 12 73 67
132 122 254 235 343 345 344 428 1 29 -12 34 -44 15z"/>
<path d="M3927 1191 c-3 -12 -1 -24 4 -27 13 -8 24 25 12 37 -7 7 -12 3 -16
-10z"/>
<path d="M4436 1185 c-25 -19 -14 -42 24 -47 38 -6 44 2 29 36 -14 29 -26 32
-53 11z"/>
<path d="M3313 1108 c-69 -76 -118 -188 -83 -188 6 0 10 5 10 10 0 6 12 10 28
10 20 0 33 9 51 35 13 19 27 35 31 35 9 0 6 32 -4 49 -5 7 -4 17 2 23 10 10 5
48 -7 48 -4 0 -17 -10 -28 -22z"/>
<path d="M5174 1080 c0 -11 6 -20 13 -20 7 0 13 9 13 20 0 11 -6 20 -13 20 -7
0 -13 -9 -13 -20z"/>
<path d="M901 1014 c-11 -15 -21 -30 -21 -35 0 -13 -95 -147 -124 -174 -24
-23 -86 -123 -86 -140 0 -14 22 -1 69 41 52 47 91 99 126 169 11 22 23 42 27
45 4 3 17 27 29 54 25 58 13 82 -20 40z"/>
<path d="M295 894 c-17 -20 -36 -43 -42 -50 -7 -7 -13 -20 -13 -29 0 -10 22 6
60 43 33 33 60 63 60 66 0 19 -39 1 -65 -30z"/>
<path d="M2391 904 c0 -11 3 -14 6 -6 3 7 2 16 -1 19 -3 4 -6 -2 -5 -13z"/>
<path d="M2278 878 c-18 -29 -21 -110 -5 -131 15 -19 77 -12 77 9 0 8 -7 14
-15 14 -12 0 -15 14 -15 65 0 70 -15 85 -42 43z"/>
<path d="M2434 795 c-4 -10 -11 -12 -18 -7 -6 5 -22 5 -36 1 l-25 -7 26 -1
c18 -1 28 -8 32 -22 9 -33 41 -20 45 19 3 33 -14 45 -24 17z"/>
<path d="M2561 759 c-12 -13 -21 -29 -21 -37 0 -12 -56 -102 -64 -102 -2 0
-19 7 -39 15 l-35 14 -6 -31 c-3 -17 -6 -55 -6 -85 0 -58 17 -77 49 -55 9 6
30 19 48 27 17 9 33 24 36 33 3 9 13 31 23 47 33 57 35 66 25 79 -8 9 -4 18
14 34 28 24 32 54 11 71 -11 10 -19 7 -35 -10z"/>
<path d="M3136 765 c-9 -26 -7 -32 5 -12 6 10 9 21 6 23 -2 3 -7 -2 -11 -11z"/>
<path d="M3547 723 c-2 -5 -7 -25 -11 -46 -9 -47 -47 -77 -73 -56 -14 12 -17
11 -27 -5 -6 -11 -19 -26 -28 -35 -21 -18 -24 -41 -5 -41 21 0 57 30 57 48 0
13 3 12 16 -6 16 -24 12 -42 -11 -42 -8 0 -18 -6 -22 -13 -4 -8 -21 -22 -38
-33 -60 -38 -68 -50 -62 -94 4 -33 2 -42 -14 -50 -10 -6 -19 -20 -19 -31 0
-15 -5 -19 -15 -15 -10 4 -15 -2 -17 -17 -3 -43 4 -72 18 -80 8 -4 14 -23 14
-42 0 -19 4 -36 8 -39 24 -14 122 108 122 152 0 23 19 42 41 42 9 0 25 16 36
37 11 21 28 54 39 73 10 19 20 37 21 39 1 1 7 0 13 -4 9 -6 9 -9 0 -15 -12 -8
-17 -76 -6 -88 4 -3 16 -1 26 6 32 19 53 29 85 39 37 11 43 38 15 68 -17 18
-27 22 -44 16 -35 -14 -85 0 -117 31 l-30 31 22 23 c12 13 19 30 15 39 -3 9 0
18 9 21 21 8 27 38 14 68 -12 26 -24 33 -32 19z"/>
<path d="M2167 703 c-23 -26 -58 -113 -58 -143 1 -14 2 -70 4 -125 3 -107 -9
-233 -24 -251 -14 -17 -21 -113 -9 -132 7 -13 8 -9 4 15 -6 28 -4 31 14 26 11
-2 22 -1 25 4 8 13 20 110 18 148 0 17 6 68 15 115 8 47 15 98 14 114 -1 45
19 93 46 110 24 16 35 66 14 66 -5 0 -16 16 -24 35 -17 40 -18 41 -39 18z"/>
<path d="M2627 592 c-23 -25 -21 -32 8 -32 20 0 25 5 25 25 0 30 -11 32 -33 7z"/>
<path d="M3888 573 c-37 -6 -36 -23 1 -23 16 0 31 6 35 15 3 8 2 14 -2 14 -4
-1 -19 -4 -34 -6z"/>
<path d="M2250 522 c-33 -40 -38 -58 -30 -101 8 -47 27 -74 33 -50 2 8 9 30
16 50 13 40 15 119 3 119 -4 0 -14 -8 -22 -18z"/>
<path d="M2660 492 c-41 -2 -69 -8 -76 -17 -6 -8 -38 -16 -74 -20 -35 -4 -76
-13 -90 -20 -14 -7 -37 -11 -51 -8 -22 4 -28 -2 -49 -42 -19 -38 -23 -60 -22
-121 1 -41 6 -83 12 -93 5 -11 10 -34 10 -52 0 -21 12 -47 33 -75 30 -40 35
-43 80 -44 26 0 47 5 47 10 0 6 9 10 21 10 11 0 17 -4 14 -10 -4 -6 31 -10 98
-10 97 0 106 2 131 25 14 13 26 31 26 38 0 22 30 30 31 9 0 -11 6 -6 16 14 8
17 24 36 35 43 17 11 22 10 34 -8 14 -19 16 -19 43 -3 16 9 28 19 25 23 -2 4
4 13 12 20 24 19 54 95 54 133 0 38 -18 96 -30 96 -5 0 -10 10 -12 22 -4 31
-28 35 -28 4 0 -13 -4 -28 -10 -31 -5 -3 -10 -15 -10 -26 0 -11 -11 -24 -25
-31 -20 -9 -25 -19 -26 -52 0 -23 -3 -34 -6 -26 -4 8 -13 20 -21 26 -8 6 -12
16 -8 22 5 8 0 9 -16 3 -28 -10 -48 -46 -48 -88 0 -35 -17 -53 -31 -32 -11 17
-1 85 17 123 13 27 12 31 -7 52 -15 16 -20 31 -17 48 4 19 1 26 -10 26 -13 0
-13 3 -4 12 13 13 16 45 5 50 -5 2 -37 2 -73 0z m27 -99 c-9 -9 -19 -14 -23
-11 -10 10 6 28 24 28 15 0 15 -1 -1 -17z m-287 -48 l-7 -50 -2 46 c0 25 2 49
6 52 10 11 11 5 3 -48z"/>
<path d="M1721 261 c-17 -31 -6 -88 21 -102 20 -11 21 -10 13 22 -4 19 -10 50
-14 69 -7 35 -7 35 -20 11z"/>
<path d="M0 225 l0 -46 24 18 c13 10 20 20 16 23 -4 3 -10 15 -14 28 -12 37
-26 25 -26 -23z"/>
<path d="M1267 207 c-3 -17 -1 -36 3 -40 4 -5 10 8 12 28 5 45 -8 57 -15 12z"/>
<path d="M3463 215 c0 -8 7 -15 15 -15 7 0 12 5 10 12 -6 18 -25 21 -25 3z"/>
<path d="M2160 205 c0 -8 5 -15 10 -15 6 0 10 7 10 15 0 8 -4 15 -10 15 -5 0
-10 -7 -10 -15z"/>
<path d="M876 176 c-14 -19 -26 -39 -26 -45 0 -6 -7 -11 -15 -11 -23 0 -47
-45 -43 -82 l3 -33 62 -3 62 -3 -1 58 c0 32 1 63 2 68 6 24 -1 85 -9 85 -5 0
-20 -15 -35 -34z"/>
<path d="M3032 165 c-14 -31 -16 -65 -2 -65 8 0 30 60 30 83 0 16 -18 5 -28
-18z"/>
<path d="M4080 164 c0 -8 5 -12 10 -9 6 3 10 10 10 16 0 5 -4 9 -10 9 -5 0
-10 -7 -10 -16z"/>
<path d="M1300 155 c0 -7 -7 -18 -15 -22 -12 -7 -14 -21 -9 -71 l7 -62 153 0
c112 0 154 3 157 13 4 10 6 10 6 0 1 -9 20 -13 61 -13 l60 0 -7 48 c-4 30 -15
56 -30 72 l-25 25 -20 -28 c-15 -20 -28 -27 -53 -27 -27 0 -37 -6 -52 -30 -23
-39 -33 -38 -33 5 0 28 -6 37 -27 49 -49 25 -78 24 -81 -1 -5 -32 -12 -29 -46
17 -31 42 -46 50 -46 25z"/>
<path d="M4000 135 c-14 -8 -33 -14 -42 -15 -32 0 -19 -20 13 -20 31 0 89 27
89 42 0 13 -33 9 -60 -7z"/>
<path d="M1028 68 c-38 -44 -37 -68 2 -68 29 0 30 1 30 50 0 28 -1 50 -2 50
-2 0 -15 -15 -30 -32z"/>
<path d="M2267 23 c-12 -11 -8 -23 8 -23 8 0 15 7 15 15 0 16 -12 20 -23 8z"/>
</g>
</svg>
