<?xml version="1.0" standalone="no"?>
<!DOCTYPE svg PUBLIC "-//W3C//DTD SVG 20010904//EN"
 "http://www.w3.org/TR/2001/REC-SVG-20010904/DTD/svg10.dtd">
<svg version="1.0" xmlns="http://www.w3.org/2000/svg"
 width="1080.000000pt" height="1080.000000pt" viewBox="0 0 1080.000000 1080.000000"
 preserveAspectRatio="xMidYMid meet">

<g transform="translate(0.000000,1080.000000) scale(0.100000,-0.100000)"
fill="#000000" stroke="none">
<path d="M4211 9240 c-71 -15 -141 -40 -222 -80 -200 -98 -344 -218 -660 -547
-75 -78 -78 -80 -141 -90 -75 -13 -181 -53 -239 -91 -39 -26 -88 -91 -109
-146 -6 -17 -20 -86 -30 -155 -28 -182 -35 -200 -96 -222 -54 -21 -73 -44
-103 -131 -62 -177 -107 -272 -167 -348 -64 -83 -109 -230 -70 -230 8 0 27
-11 43 -24 l27 -24 -70 -78 c-68 -76 -114 -136 -257 -335 -37 -52 -92 -128
-122 -169 -30 -41 -67 -100 -82 -130 -25 -49 -126 -217 -324 -539 -35 -57 -68
-106 -74 -107 -5 -2 -41 92 -79 210 -38 117 -88 261 -111 320 -48 119 -48 119
24 156 21 10 42 24 48 32 18 21 93 201 87 209 -7 13 -173 105 -248 139 -39 17
-84 37 -100 45 -69 32 -201 85 -212 85 -6 0 -64 -123 -129 -272 -113 -260
-173 -396 -215 -482 l-19 -39 57 6 c31 4 77 9 103 13 l45 6 13 -53 c96 -406
187 -930 207 -1195 l7 -92 -118 -213 c-145 -263 -332 -596 -352 -628 -18 -28
-31 -15 -31 33 0 34 -38 394 -52 496 -5 36 -14 124 -20 195 -16 201 -57 559
-101 900 -33 255 -59 460 -59 473 0 8 -64 0 -101 -13 -24 -9 -70 -19 -101 -22
l-58 -6 0 -1482 c0 -815 3 -1485 7 -1489 5 -4 9 -12 9 -17 1 -5 2 -13 3 -17 0
-5 12 -22 26 -38 14 -16 25 -32 25 -36 0 -13 124 -132 174 -166 54 -38 71 -37
81 7 10 45 25 38 25 -11 0 -77 79 -214 148 -255 23 -15 54 -23 82 -23 l45 -1
-37 -20 c-21 -11 -38 -24 -38 -29 0 -16 152 -140 179 -146 59 -13 88 -26 117
-52 18 -15 60 -49 94 -77 34 -27 83 -67 109 -88 25 -22 63 -53 85 -70 21 -18
54 -46 75 -63 20 -17 52 -41 71 -54 19 -13 69 -52 111 -87 115 -93 283 -185
419 -228 154 -49 169 -53 215 -60 23 -3 50 -7 62 -9 12 -3 43 -8 70 -11 26 -4
86 -20 133 -35 47 -14 105 -33 128 -40 27 -9 47 -22 52 -34 9 -23 51 -63 91
-88 33 -20 219 -84 307 -104 84 -20 198 -20 245 -1 33 14 82 70 148 167 14 21
39 55 55 76 35 45 102 139 180 254 32 47 66 93 75 104 10 10 34 46 55 80 20
33 51 79 68 101 18 22 67 94 110 159 43 65 88 128 98 138 11 11 35 46 54 78
19 32 40 65 47 72 27 28 66 88 132 198 81 135 145 234 157 238 4 2 8 8 8 14 0
5 13 28 28 51 29 42 140 228 308 512 49 83 91 152 94 155 3 3 21 35 40 72 19
37 38 68 43 68 4 0 7 5 7 11 0 7 13 33 28 58 15 25 40 74 55 109 16 34 54 106
86 160 54 92 251 484 302 602 13 30 38 81 56 112 17 31 35 67 38 80 4 13 21
50 36 84 16 34 29 66 29 71 0 9 40 101 83 192 18 38 35 36 87 -8 27 -22 53
-41 58 -41 5 0 32 25 61 55 49 54 99 144 126 232 19 64 78 152 140 213 81 78
98 116 90 194 l-7 62 44 19 c149 65 276 201 331 353 38 106 45 132 59 212 19
110 14 426 -9 576 -20 134 -20 135 31 284 50 145 53 155 70 242 20 96 20 125
0 202 -54 212 -139 343 -339 520 -79 69 -373 269 -564 383 -328 197 -509 283
-771 369 -187 62 -324 85 -515 89 -93 2 -190 0 -214 -5z m-1411 -2125 c131
-22 503 -133 675 -203 191 -77 277 -116 482 -218 556 -276 1115 -707 1419
-1094 l46 -59 -16 -47 c-18 -54 -218 -398 -281 -483 -22 -31 -71 -101 -108
-156 -103 -152 -156 -228 -175 -250 -9 -11 -35 -47 -57 -81 -22 -33 -53 -75
-68 -94 -28 -33 -29 -33 -48 -14 -10 11 -24 42 -31 70 l-12 50 -86 -52 c-86
-51 -252 -138 -320 -167 -146 -63 -183 -78 -245 -97 -38 -12 -80 -25 -93 -30
-71 -29 -327 -82 -485 -100 -136 -16 -391 -15 -447 0 -107 31 -289 158 -350
247 l-15 21 -175 -19 c-96 -11 -181 -22 -188 -24 -11 -4 -13 -27 -8 -108 7
-129 -13 -367 -31 -367 -7 0 -23 8 -35 18 -36 27 -226 221 -293 298 -33 38
-85 96 -116 129 -96 103 -100 109 -141 162 -43 57 -45 81 -13 157 20 47 38 97
95 256 28 80 57 161 65 180 12 32 33 89 71 193 8 20 20 54 28 75 8 20 33 87
56 147 23 61 50 131 61 158 10 26 29 71 40 100 43 106 50 120 58 111 21 -23
59 -248 76 -448 3 -38 7 -71 9 -75 2 -3 30 -4 61 -3 l57 4 -7 56 c-20 172 -23
234 -21 410 1 189 1 193 -19 187 -41 -13 -100 -23 -108 -18 -13 8 11 73 83
228 16 33 43 94 61 135 131 308 350 721 423 798 25 27 36 32 61 28 17 -3 46
-8 65 -11z m-1033 -3062 c123 -140 194 -204 418 -377 42 -32 42 -25 5 -181
-26 -111 -65 -191 -127 -257 -77 -81 -251 -218 -278 -218 -6 0 -23 24 -37 54
-25 51 -29 55 -78 65 -28 6 -59 11 -69 11 -10 0 -20 2 -23 5 -3 3 1 43 8 88
39 239 84 661 84 793 0 120 5 121 97 17z m-818 -930 c2 -70 61 -141 98 -117
15 9 26 38 52 132 8 30 17 42 27 40 18 -3 216 -385 212 -406 -2 -8 -34 -27
-73 -42 -119 -47 -109 -49 -146 20 -17 33 -36 60 -42 60 -11 0 -158 -78 -220
-117 -30 -19 -39 -21 -43 -10 -9 25 88 461 112 499 10 15 22 -17 23 -59z
m-285 -527 c-3 -8 -12 -17 -20 -20 -12 -4 -12 -2 -4 14 12 23 32 27 24 6z"/>
<path d="M2820 6911 c0 -22 34 -100 61 -143 28 -43 33 -47 52 -37 25 14 178 6
221 -10 27 -11 27 -13 13 -29 -9 -10 -26 -39 -38 -66 -25 -59 -29 -54 106
-131 55 -32 130 -77 167 -101 l67 -43 35 39 c20 22 39 52 42 66 l7 27 20 -39
c12 -23 22 -67 25 -106 7 -104 24 -89 36 30 7 74 -1 105 -38 143 -80 82 -399
260 -491 274 -93 13 -160 40 -222 86 -35 27 -63 44 -63 40z m652 -358 c31 -28
17 -73 -23 -73 -21 0 -49 26 -49 45 0 16 27 45 42 45 6 0 20 -7 30 -17z"/>
<path d="M4386 5965 c-54 -29 -126 -84 -126 -97 0 -4 27 5 60 22 33 17 80 33
105 37 l45 6 -24 -44 c-35 -64 -40 -96 -18 -103 10 -4 61 -32 113 -63 52 -31
125 -73 163 -95 l69 -38 25 22 c14 13 34 43 45 68 l20 44 43 -48 c51 -56 108
-167 92 -177 -17 -11 97 -22 139 -15 56 10 73 16 73 27 0 5 -8 9 -17 9 -40 0
-121 50 -173 105 -101 108 -137 140 -211 190 -98 66 -315 175 -349 175 -15 0
-48 -11 -74 -25z m398 -187 c12 -20 2 -44 -27 -62 -19 -12 -57 17 -57 44 0 40
62 53 84 18z"/>
<path d="M2744 5514 c-16 -86 24 -400 46 -364 5 8 15 2 31 -20 33 -45 254
-228 369 -305 91 -61 277 -156 330 -169 14 -4 5 4 -20 16 -25 12 -85 41 -134
65 -232 114 -481 326 -556 474 -26 49 -27 139 -3 180 10 16 20 29 23 29 3 0
29 -31 57 -68 144 -188 391 -373 658 -491 103 -46 170 -65 285 -82 l81 -11
-16 -24 c-8 -13 -22 -35 -31 -49 -38 -59 -161 -82 -266 -50 -27 8 -48 10 -48
6 0 -5 10 -11 23 -15 13 -3 40 -13 61 -21 31 -13 36 -18 25 -31 -17 -21 -8
-25 34 -13 21 5 42 7 47 4 6 -3 10 -1 10 4 0 6 5 11 10 11 12 0 102 41 110 49
3 4 25 20 50 36 25 16 47 32 50 35 3 3 22 20 43 38 l38 32 -70 0 c-71 0 -218
17 -235 27 -5 4 -21 7 -35 8 -30 3 -181 65 -181 74 0 4 -10 7 -21 8 -12 1 -38
13 -58 26 -20 13 -46 27 -59 31 -12 4 -22 12 -22 17 0 5 -3 8 -7 7 -5 -2 -24
7 -43 19 -19 13 -44 28 -55 35 -31 20 -129 92 -143 106 -7 6 -17 12 -22 12
-11 0 -200 189 -200 201 0 4 -8 16 -19 26 -10 10 -43 53 -74 96 l-56 78 -7
-37z"/>
<path d="M3307 5463 c-13 -13 -7 -22 39 -52 69 -47 84 -40 36 16 -27 32 -63
49 -75 36z"/>
<path d="M3405 5360 c3 -5 8 -10 11 -10 2 0 4 5 4 10 0 6 -5 10 -11 10 -5 0
-7 -4 -4 -10z"/>
<path d="M3610 5255 c0 -6 97 -55 110 -55 16 0 12 25 -8 43 -17 15 -102 25
-102 12z"/>
<path d="M2810 5064 c0 -5 7 -19 15 -30 8 -12 12 -24 9 -26 -3 -3 2 -8 11 -12
13 -5 12 2 -6 32 -28 46 -29 47 -29 36z"/>
<path d="M2860 4965 c0 -8 9 -19 21 -25 20 -11 20 -11 4 14 -20 30 -25 32 -25
11z"/>
<path d="M2918 4899 c12 -14 22 -30 22 -35 0 -6 16 -24 36 -40 19 -16 47 -39
62 -52 45 -38 51 -42 58 -41 4 0 10 -3 13 -8 3 -5 35 -24 71 -42 36 -19 71
-39 78 -44 8 -6 23 -12 34 -14 11 -2 26 -10 35 -18 8 -8 18 -13 23 -10 4 3 26
-2 49 -10 23 -8 41 -11 41 -7 0 4 -21 14 -47 21 -76 20 -242 104 -315 160 -37
28 -93 77 -125 109 -31 31 -47 45 -35 31z"/>
<path d="M3450 4570 c0 -5 7 -7 15 -4 8 4 15 8 15 10 0 2 -7 4 -15 4 -8 0 -15
-4 -15 -10z"/>
<path d="M3513 4563 c9 -2 25 -2 35 0 9 3 1 5 -18 5 -19 0 -27 -2 -17 -5z"/>
</g>
</svg>
